<svg xmlns="http://www.w3.org/2000/svg" width="201.62" height="213.776" viewBox="0 0 201.62 213.776"><g id="Group_275" data-name="Group 275" transform="translate(-325.783 -109.086)"><g id="Group_272" data-name="Group 272"><circle id="Ellipse_2" data-name="Ellipse 2" cx="99.095" cy="99.095" r="99.095" transform="translate(329.241 121.242) rotate(1)" fill="#f4f4f4"></circle><g id="Group_140" data-name="Group 140"><g id="Group_81" data-name="Group 81"><path id="Path_111" data-name="Path 111" d="M520.655,287.645H329.99a.5.5,0,0,1,0-1H520.655a.5.5,0,0,1,0,1Z"></path></g><g id="Group_84" data-name="Group 84"><g id="Group_82" data-name="Group 82"><path id="Path_112" data-name="Path 112" d="M412.53,242.315a.5.5,0,0,1-.5-.5v-3.75a.5.5,0,1,1,1,0v3.75A.5.5,0,0,1,412.53,242.315Z" fill="#374450"></path></g><g id="Group_83" data-name="Group 83"><path id="Path_113" data-name="Path 113" d="M414.4,240.44h-3.75a.5.5,0,0,1,0-1h3.75a.5.5,0,0,1,0,1Z" fill="#374450"></path></g></g><g id="Group_85" data-name="Group 85"><path id="Path_114" data-name="Path 114" d="M481.986,233.719a2.375,2.375,0,1,1,2.375-2.375A2.378,2.378,0,0,1,481.986,233.719Zm0-3.75a1.375,1.375,0,1,0,1.375,1.375A1.376,1.376,0,0,0,481.986,229.969Z"></path></g><g id="Group_86" data-name="Group 86"><path id="Path_115" data-name="Path 115" d="M360.666,244.967a2.375,2.375,0,1,1,2.375-2.375A2.378,2.378,0,0,1,360.666,244.967Zm0-3.75a1.375,1.375,0,1,0,1.375,1.375A1.376,1.376,0,0,0,360.666,241.217Z"></path></g><g id="Group_99" data-name="Group 99"><g id="Group_87" data-name="Group 87"><path id="Path_116" data-name="Path 116" d="M383.893,186.532a.5.5,0,0,1-.5-.5v-.75a.5.5,0,0,1,1,0v.75A.5.5,0,0,1,383.893,186.532Z"></path></g><g id="Group_88" data-name="Group 88"><path id="Path_117" data-name="Path 117" d="M383.129,186.759a.5.5,0,0,1-.434-.25l-.375-.649a.5.5,0,1,1,.866-.5l.375.649a.5.5,0,0,1-.183.683A.488.488,0,0,1,383.129,186.759Z"></path></g><g id="Group_89" data-name="Group 89"><path id="Path_118" data-name="Path 118" d="M382.578,187.339a.5.5,0,0,1-.249-.067l-.649-.375a.5.5,0,1,1,.5-.866l.649.375a.5.5,0,0,1-.251.933Z"></path></g><g id="Group_90" data-name="Group 90"><path id="Path_119" data-name="Path 119" d="M382.393,188.115h-.75a.5.5,0,0,1,0-1h.75a.5.5,0,0,1,0,1Z"></path></g><g id="Group_91" data-name="Group 91"><path id="Path_120" data-name="Path 120" d="M381.972,189.256a.5.5,0,0,1-.25-.933l.649-.375a.5.5,0,0,1,.5.866l-.649.375A.5.5,0,0,1,381.972,189.256Z"></path></g><g id="Group_92" data-name="Group 92"><path id="Path_121" data-name="Path 121" d="M382.825,190.079a.5.5,0,0,1-.433-.75l.375-.649a.5.5,0,0,1,.867.5l-.375.649A.5.5,0,0,1,382.825,190.079Z"></path></g><g id="Group_93" data-name="Group 93"><path id="Path_122" data-name="Path 122" d="M383.977,190.365a.5.5,0,0,1-.5-.5v-.75a.5.5,0,0,1,1,0v.75A.5.5,0,0,1,383.977,190.365Z"></path></g><g id="Group_94" data-name="Group 94"><path id="Path_123" data-name="Path 123" d="M385.117,190.038a.5.5,0,0,1-.433-.25l-.375-.65a.5.5,0,0,1,.866-.5l.375.65a.5.5,0,0,1-.433.75Z"></path></g><g id="Group_95" data-name="Group 95"><path id="Path_124" data-name="Path 124" d="M385.94,189.184a.5.5,0,0,1-.249-.067l-.65-.375a.5.5,0,0,1,.5-.867l.65.375a.5.5,0,0,1-.251.934Z"></path></g><g id="Group_96" data-name="Group 96"><path id="Path_125" data-name="Path 125" d="M386.227,188.032h-.75a.5.5,0,0,1,0-1h.75a.5.5,0,0,1,0,1Z"></path></g><g id="Group_97" data-name="Group 97"><path id="Path_126" data-name="Path 126" d="M385.25,187.267a.5.5,0,0,1-.251-.933l.65-.375a.5.5,0,1,1,.5.866l-.65.375A.488.488,0,0,1,385.25,187.267Z"></path></g><g id="Group_98" data-name="Group 98"><path id="Path_127" data-name="Path 127" d="M384.669,186.718a.5.5,0,0,1-.432-.75l.375-.65a.5.5,0,1,1,.866.5l-.375.65A.5.5,0,0,1,384.669,186.718Z"></path></g></g><g id="Group_100" data-name="Group 100"><path id="Path_128" data-name="Path 128" d="M373.11,155.27h-.022c-.686-.029-1.38-.09-2.063-.18a.5.5,0,0,1,.131-.992c.654.087,1.318.145,1.975.173a.5.5,0,0,1-.021,1Zm2.027,0a.5.5,0,0,1-.022-1c.658-.029,1.322-.089,1.974-.177a.5.5,0,1,1,.133.991c-.68.092-1.374.154-2.062.185Zm-6.041-.532a.524.524,0,0,1-.111-.012c-.67-.152-1.343-.336-2-.548a.5.5,0,1,1,.308-.951c.626.2,1.269.378,1.911.523a.5.5,0,0,1-.11.988Zm10.054-.011a.5.5,0,0,1-.111-.987c.641-.147,1.283-.325,1.91-.529a.5.5,0,0,1,.31.951c-.656.214-1.328.4-2,.552A.482.482,0,0,1,379.15,154.725Zm-13.908-1.235a.505.505,0,0,1-.2-.04c-.635-.27-1.263-.573-1.868-.9a.5.5,0,1,1,.474-.881c.578.311,1.179.6,1.786.859a.5.5,0,0,1-.2.96ZM383,153.471a.5.5,0,0,1-.2-.96c.6-.259,1.2-.549,1.784-.862a.5.5,0,0,1,.475.88c-.605.326-1.233.63-1.865.9A.49.49,0,0,1,383,153.471Zm-21.327-1.9a.5.5,0,0,1-.275-.083c-.573-.378-1.138-.787-1.677-1.217a.5.5,0,1,1,.623-.782c.516.411,1.056.8,1.6,1.164a.5.5,0,0,1-.275.918Zm24.89-.026a.5.5,0,0,1-.276-.917c.547-.362,1.086-.755,1.6-1.167a.5.5,0,1,1,.624.781c-.539.431-1.1.841-1.674,1.22A.5.5,0,0,1,386.563,151.547Zm-28.059-2.5a.5.5,0,0,1-.345-.138c-.5-.473-.979-.976-1.435-1.495a.5.5,0,1,1,.752-.66c.436.5.9.978,1.372,1.431a.5.5,0,0,1-.344.862Zm31.223-.032a.5.5,0,0,1-.346-.861c.475-.454.936-.937,1.37-1.434a.5.5,0,0,1,.753.658c-.453.519-.935,1.023-1.431,1.5A.5.5,0,0,1,389.727,149.018Zm-33.893-3.013a.5.5,0,0,1-.4-.205c-.4-.555-.791-1.136-1.146-1.726a.5.5,0,1,1,.857-.516c.34.565.708,1.121,1.1,1.652a.5.5,0,0,1-.4.795Zm36.557-.037a.5.5,0,0,1-.4-.795c.387-.531.755-1.087,1.093-1.654a.5.5,0,0,1,.859.514c-.355.592-.739,1.174-1.143,1.729A.5.5,0,0,1,392.391,145.968Zm-38.644-3.434a.5.5,0,0,1-.45-.283c-.3-.62-.576-1.261-.819-1.9a.5.5,0,0,1,.936-.354c.232.614.495,1.227.783,1.821a.5.5,0,0,1-.232.668A.514.514,0,0,1,353.747,142.534Zm40.724-.043a.5.5,0,0,1-.217-.05.5.5,0,0,1-.233-.668c.285-.591.547-1.2.779-1.822a.5.5,0,0,1,.937.351c-.243.647-.517,1.288-.816,1.906A.5.5,0,0,1,394.471,142.491Zm-42.155-3.745a.5.5,0,0,1-.481-.367c-.184-.663-.34-1.342-.463-2.02a.5.5,0,1,1,.984-.178c.118.647.267,1.3.443,1.931a.5.5,0,0,1-.348.615A.483.483,0,0,1,352.316,138.746Zm43.578-.047a.508.508,0,0,1-.133-.018.5.5,0,0,1-.349-.615c.174-.634.322-1.283.438-1.933a.5.5,0,0,1,.985.178c-.123.678-.277,1.358-.459,2.02A.5.5,0,0,1,395.894,138.7Zm-44.305-3.937a.5.5,0,0,1-.5-.455c-.062-.684-.1-1.38-.1-2.069a.5.5,0,0,1,.5-.5h0a.5.5,0,0,1,.5.5c0,.659.032,1.326.092,1.98a.5.5,0,0,1-.453.544Zm45.024-.049a.339.339,0,0,1-.045,0,.5.5,0,0,1-.454-.542c.058-.654.087-1.321.087-1.981a.543.543,0,0,1,.5-.548.461.461,0,0,1,.5.452v.1c0,.689-.03,1.386-.091,2.069A.5.5,0,0,1,396.613,134.713Zm-45.031-4-.044,0a.5.5,0,0,1-.455-.541c.059-.685.15-1.376.271-2.054a.5.5,0,1,1,.984.175c-.115.649-.2,1.31-.259,1.965A.5.5,0,0,1,351.582,130.712Zm45.021-.144a.5.5,0,0,1-.5-.453c-.06-.655-.152-1.315-.271-1.964a.5.5,0,1,1,.983-.181c.125.678.221,1.368.284,2.052a.5.5,0,0,1-.451.544A.377.377,0,0,1,396.6,130.568Zm-44.312-3.843a.5.5,0,0,1-.483-.631c.182-.665.4-1.329.636-1.972a.5.5,0,0,1,.937.349c-.23.615-.434,1.25-.608,1.886A.5.5,0,0,1,352.291,126.725Zm43.577-.139a.5.5,0,0,1-.481-.365c-.177-.631-.385-1.265-.62-1.883a.5.5,0,0,1,.935-.355c.246.646.463,1.308.648,1.969a.5.5,0,0,1-.347.616A.482.482,0,0,1,395.868,126.586ZM353.7,122.93a.494.494,0,0,1-.216-.05.5.5,0,0,1-.234-.667c.3-.62.626-1.235.979-1.826a.5.5,0,1,1,.859.511c-.337.567-.652,1.155-.937,1.748A.5.5,0,0,1,353.7,122.93Zm40.725-.13a.5.5,0,0,1-.449-.281c-.289-.592-.608-1.178-.947-1.74a.5.5,0,0,1,.855-.517c.355.588.688,1.2.99,1.819a.5.5,0,0,1-.23.668A.491.491,0,0,1,394.43,122.8Zm-38.653-3.352a.5.5,0,0,1-.4-.793c.4-.558.836-1.1,1.288-1.622a.5.5,0,1,1,.755.656c-.432.5-.847,1.019-1.234,1.552A.5.5,0,0,1,355.777,119.448Zm36.56-.114a.5.5,0,0,1-.4-.2c-.387-.53-.806-1.049-1.243-1.545a.5.5,0,1,1,.751-.661c.456.518.893,1.061,1.3,1.614a.5.5,0,0,1-.4.8Zm-33.9-2.942a.5.5,0,0,1-.346-.86c.5-.479,1.023-.94,1.556-1.368a.5.5,0,0,1,.626.78c-.51.41-1.011.85-1.489,1.309A.5.5,0,0,1,358.436,116.392Zm31.223-.1a.5.5,0,0,1-.345-.137c-.476-.453-.98-.89-1.5-1.3a.5.5,0,0,1,.621-.783c.541.428,1.067.885,1.565,1.358a.5.5,0,0,1-.344.862ZM361.6,113.857a.5.5,0,0,1-.277-.917c.573-.381,1.171-.741,1.775-1.068a.5.5,0,0,1,.476.878c-.577.314-1.148.658-1.7,1.023A.494.494,0,0,1,361.6,113.857Zm24.889-.079a.491.491,0,0,1-.274-.082c-.552-.362-1.126-.7-1.7-1.012a.5.5,0,1,1,.472-.882c.605.323,1.2.679,1.782,1.058a.5.5,0,0,1-.275.918Zm-21.331-1.853a.5.5,0,0,1-.2-.959c.63-.272,1.281-.519,1.937-.734a.5.5,0,1,1,.312.95c-.627.206-1.251.442-1.853.7A.492.492,0,0,1,365.153,111.925Zm17.758-.057a.5.5,0,0,1-.2-.039c-.605-.257-1.23-.489-1.858-.69a.5.5,0,1,1,.3-.953c.657.211,1.31.454,1.944.722a.5.5,0,0,1-.2.96ZM369,110.663a.5.5,0,0,1-.112-.987c.672-.155,1.358-.281,2.039-.374a.5.5,0,1,1,.135.991c-.65.089-1.306.209-1.949.357A.485.485,0,0,1,369,110.663Zm10.055-.032a.522.522,0,0,1-.11-.012c-.641-.144-1.3-.26-1.951-.345a.5.5,0,0,1-.431-.561.5.5,0,0,1,.561-.43c.682.089,1.368.21,2.04.36a.5.5,0,0,1-.109.988Zm-6.043-.519a.5.5,0,0,1-.024-1c.686-.033,1.384-.035,2.073-.006a.5.5,0,0,1,.478.52.49.49,0,0,1-.52.479c-.66-.027-1.329-.024-1.983.006Z"></path></g><g id="Group_106" data-name="Group 106"><g id="Group_101" data-name="Group 101"><path id="Path_129" data-name="Path 129" d="M374.1,163.063a.5.5,0,0,1-.5-.5v-1a.5.5,0,1,1,1,0v1A.5.5,0,0,1,374.1,163.063Z"></path></g><g id="Group_102" data-name="Group 102"><path id="Path_130" data-name="Path 130" d="M374.1,263.3a.5.5,0,0,1-.5-.5v-2a.5.5,0,0,1,1,0v2A.5.5,0,0,1,374.1,263.3Zm0-4.009a.5.5,0,0,1-.5-.5v-2a.5.5,0,0,1,1,0v2A.5.5,0,0,1,374.1,259.291Zm0-4.01a.5.5,0,0,1-.5-.5v-2.005a.5.5,0,0,1,1,0v2.005A.5.5,0,0,1,374.1,255.281Zm0-4.009a.5.5,0,0,1-.5-.5v-2.005a.5.5,0,0,1,1,0v2.005A.5.5,0,0,1,374.1,251.272Zm0-4.01a.5.5,0,0,1-.5-.5v-2a.5.5,0,1,1,1,0v2A.5.5,0,0,1,374.1,247.262Zm0-4.009a.5.5,0,0,1-.5-.5v-2.005a.5.5,0,0,1,1,0v2.005A.5.5,0,0,1,374.1,243.253Zm0-4.01a.5.5,0,0,1-.5-.5v-2a.5.5,0,0,1,1,0v2A.5.5,0,0,1,374.1,239.243Zm0-4.009a.5.5,0,0,1-.5-.5v-2a.5.5,0,0,1,1,0v2A.5.5,0,0,1,374.1,235.234Zm0-4.009a.5.5,0,0,1-.5-.5V228.72a.5.5,0,0,1,1,0v2.005A.5.5,0,0,1,374.1,231.225Zm0-4.01a.5.5,0,0,1-.5-.5v-2a.5.5,0,0,1,1,0v2A.5.5,0,0,1,374.1,227.215Zm0-4.009a.5.5,0,0,1-.5-.5v-2a.5.5,0,0,1,1,0v2A.5.5,0,0,1,374.1,223.206Zm0-4.01a.5.5,0,0,1-.5-.5v-2.005a.5.5,0,0,1,1,0V218.7A.5.5,0,0,1,374.1,219.2Zm0-4.01a.5.5,0,0,1-.5-.5v-2a.5.5,0,0,1,1,0v2A.5.5,0,0,1,374.1,215.186Zm0-4.009a.5.5,0,0,1-.5-.5v-2.005a.5.5,0,0,1,1,0v2.005A.5.5,0,0,1,374.1,211.177Zm0-4.009a.5.5,0,0,1-.5-.5v-2.005a.5.5,0,0,1,1,0v2.005A.5.5,0,0,1,374.1,207.168Zm0-4.01a.5.5,0,0,1-.5-.5v-2.005a.5.5,0,0,1,1,0v2.005A.5.5,0,0,1,374.1,203.158Zm0-4.009a.5.5,0,0,1-.5-.5v-2.005a.5.5,0,0,1,1,0v2.005A.5.5,0,0,1,374.1,199.149Zm0-4.01a.5.5,0,0,1-.5-.5v-2a.5.5,0,0,1,1,0v2A.5.5,0,0,1,374.1,195.139Zm0-4.009a.5.5,0,0,1-.5-.5v-2.005a.5.5,0,0,1,1,0v2.005A.5.5,0,0,1,374.1,191.13Zm0-4.009a.5.5,0,0,1-.5-.5v-2.005a.5.5,0,0,1,1,0v2.005A.5.5,0,0,1,374.1,187.121Zm0-4.01a.5.5,0,0,1-.5-.5v-2a.5.5,0,0,1,1,0v2A.5.5,0,0,1,374.1,183.111Zm0-4.01a.5.5,0,0,1-.5-.5v-2a.5.5,0,0,1,1,0v2A.5.5,0,0,1,374.1,179.1Zm0-4.009a.5.5,0,0,1-.5-.5v-2a.5.5,0,1,1,1,0v2A.5.5,0,0,1,374.1,175.092Zm0-4.01a.5.5,0,0,1-.5-.5v-2a.5.5,0,0,1,1,0v2A.5.5,0,0,1,374.1,171.082Zm0-4.009a.5.5,0,0,1-.5-.5v-2.005a.5.5,0,0,1,1,0v2.005A.5.5,0,0,1,374.1,167.073Z"></path></g><g id="Group_103" data-name="Group 103"><path id="Path_131" data-name="Path 131" d="M375.1,266.3h-1.5v-1.5a.5.5,0,1,1,1,0v.5h.5a.5.5,0,0,1,0,1Z"></path></g><g id="Group_104" data-name="Group 104"><path id="Path_132" data-name="Path 132" d="M431.6,266.3h-2.018a.5.5,0,0,1,0-1H431.6a.5.5,0,0,1,0,1Zm-4.036,0h-2.018a.5.5,0,0,1,0-1h2.018a.5.5,0,0,1,0,1Zm-4.036,0H421.51a.5.5,0,0,1,0-1h2.017a.5.5,0,0,1,0,1Zm-4.035,0h-2.018a.5.5,0,0,1,0-1h2.018a.5.5,0,0,1,0,1Zm-4.036,0h-2.018a.5.5,0,0,1,0-1h2.018a.5.5,0,0,1,0,1Zm-4.036,0H409.4a.5.5,0,0,1,0-1h2.018a.5.5,0,0,1,0,1Zm-4.035,0h-2.018a.5.5,0,0,1,0-1h2.018a.5.5,0,0,1,0,1Zm-4.036,0h-2.018a.5.5,0,0,1,0-1h2.018a.5.5,0,0,1,0,1Zm-4.036,0H397.3a.5.5,0,0,1,0-1h2.018a.5.5,0,0,1,0,1Zm-4.036,0H393.26a.5.5,0,0,1,0-1h2.017a.5.5,0,0,1,0,1Zm-4.035,0h-2.019a.5.5,0,0,1,0-1h2.019a.5.5,0,0,1,0,1Zm-4.036,0h-2.018a.5.5,0,0,1,0-1h2.018a.5.5,0,0,1,0,1Zm-4.036,0h-2.018a.5.5,0,0,1,0-1h2.018a.5.5,0,0,1,0,1Zm-4.035,0h-2.018a.5.5,0,0,1,0-1h2.018a.5.5,0,0,1,0,1Z"></path></g><g id="Group_105" data-name="Group 105"><path id="Path_133" data-name="Path 133" d="M434.616,266.3h-1a.5.5,0,0,1,0-1h1a.5.5,0,0,1,0,1Z"></path></g></g><g id="Group_107" data-name="Group 107"><path id="Path_134" data-name="Path 134" d="M460.414,225.515a5.829,5.829,0,1,1-5.829-5.828A5.829,5.829,0,0,1,460.414,225.515Z" fill="#fff"></path><path id="Path_135" data-name="Path 135" d="M454.585,231.844a6.328,6.328,0,1,1,6.328-6.329A6.336,6.336,0,0,1,454.585,231.844Zm0-11.657a5.328,5.328,0,1,0,5.328,5.328A5.335,5.335,0,0,0,454.585,220.187Z"></path></g><circle id="Ellipse_5" data-name="Ellipse 5" cx="18.999" cy="18.999" r="18.999" transform="translate(435.673 156.712)" fill="#5fcb5c"></circle><path id="Path_136" data-name="Path 136" d="M454.9,222.955Z" fill="#b3d0ee"></path><path id="Path_137" data-name="Path 137" d="M454.9,222.955Z" fill="#b3d0ee"></path><path id="Path_138" data-name="Path 138" d="M454.9,222.955Z" fill="#b3d0ee"></path><path id="Path_139" data-name="Path 139" d="M454.9,222.955Z" fill="#b3d0ee"></path><path id="Path_140" data-name="Path 140" d="M454.9,222.955Z" fill="#b3d0ee"></path><path id="Path_141" data-name="Path 141" d="M454.9,222.955Z" fill="#b3d0ee"></path><path id="Path_142" data-name="Path 142" d="M454.9,222.955h0Z" fill="#b3d0ee"></path><path id="Path_143" data-name="Path 143" d="M454.9,222.955h0Z" fill="#b3d0ee"></path><path id="Path_144" data-name="Path 144" d="M454.9,222.955Z" fill="#b3d0ee"></path><g id="Group_108" data-name="Group 108"><path id="Path_145" data-name="Path 145" d="M454.673,214.52a16.592,16.592,0,0,1-8.164-1.958,6.529,6.529,0,0,1-3.421-4.134l-.132-1.745c-.188-6.255-.232-7.741-7.508-19.485a22.615,22.615,0,1,1,38.447,0c-7.283,11.757-7.323,13.081-7.514,19.443l-.112,1.716a6.471,6.471,0,0,1-3.433,4.2A16.6,16.6,0,0,1,454.673,214.52Z" fill="#fff"></path><path id="Path_146" data-name="Path 146" d="M454.673,215.02a17.092,17.092,0,0,1-8.414-2.026,7.04,7.04,0,0,1-3.661-4.467l-.141-1.806c-.185-6.171-.23-7.631-7.434-19.26a23.115,23.115,0,1,1,39.3,0c-7.212,11.644-7.251,12.945-7.439,19.2l-.113,1.733a6.975,6.975,0,0,1-3.682,4.6A17.094,17.094,0,0,1,454.673,215.02Zm0-61.848a22.116,22.116,0,0,0-18.8,33.763c7.347,11.856,7.392,13.368,7.584,19.731l.131,1.724a6.085,6.085,0,0,0,3.172,3.738,17.5,17.5,0,0,0,15.827,0,6.017,6.017,0,0,0,3.191-3.86l.1-1.658c.194-6.455.234-7.8,7.588-19.675a22.114,22.114,0,0,0-18.8-33.763Z"></path></g><ellipse id="Ellipse_6" data-name="Ellipse 6" cx="9.71" cy="5.606" rx="9.71" ry="5.606" transform="translate(444.962 201.971)" fill="#f4f5f6"></ellipse><path id="Path_147" data-name="Path 147" d="M456.117,213.667a.3.3,0,0,1-.3-.3V180.8h-2.29v32.429a.3.3,0,0,1-.594,0V180.8H449.4a4.126,4.126,0,1,1,4.125-4.126l.006,3.532h2.29v-3.532a4.125,4.125,0,1,1,4.125,4.126h-3.531V213.37A.3.3,0,0,1,456.117,213.667Zm.3-33.457h3.531a3.532,3.532,0,1,0-3.531-3.532Zm-7.015-7.063a3.532,3.532,0,0,0,0,7.063h3.537l-.005-3.529A3.536,3.536,0,0,0,449.4,173.147Z"></path><g id="Group_110" data-name="Group 110"><g id="Group_109" data-name="Group 109"><path id="Path_148" data-name="Path 148" d="M454.672,147.358a.762.762,0,0,1-.761-.762v-7.427a.761.761,0,0,1,1.523,0V146.6A.762.762,0,0,1,454.672,147.358Z" fill="#fff"></path><path id="Path_149" data-name="Path 149" d="M454.673,147.858a1.263,1.263,0,0,1-1.262-1.262v-7.427a1.261,1.261,0,1,1,2.522,0V146.6A1.262,1.262,0,0,1,454.673,147.858Zm0-8.951a.262.262,0,0,0-.262.262V146.6c0,.288.522.29.522,0v-7.427A.262.262,0,0,0,454.673,138.907Z" fill="#ed1d24"></path></g></g><g id="Group_112" data-name="Group 112"><g id="Group_111" data-name="Group 111"><path id="Path_150" data-name="Path 150" d="M468.584,151.086a.752.752,0,0,1-.38-.1.762.762,0,0,1-.279-1.04l3.714-6.432a.762.762,0,0,1,1.32.762l-3.714,6.432A.765.765,0,0,1,468.584,151.086Z" fill="#fff"></path><path id="Path_151" data-name="Path 151" d="M468.585,151.586a1.262,1.262,0,0,1-1.094-1.892l3.715-6.433a1.3,1.3,0,0,1,1.724-.461,1.264,1.264,0,0,1,.462,1.723l-3.714,6.432A1.267,1.267,0,0,1,468.585,151.586Zm3.715-7.955a.262.262,0,0,0-.229.131l-3.714,6.431a.263.263,0,0,0,.1.357.266.266,0,0,0,.358-.1l3.714-6.431a.262.262,0,0,0-.1-.357A.251.251,0,0,0,472.3,143.631Z" fill="#ed1d24"></path></g></g><g id="Group_114" data-name="Group 114"><g id="Group_113" data-name="Group 113"><path id="Path_152" data-name="Path 152" d="M478.771,161.271a.761.761,0,0,1-.381-1.421l6.431-3.714a.762.762,0,1,1,.762,1.319l-6.432,3.714A.758.758,0,0,1,478.771,161.271Z" fill="#fff"></path><path id="Path_153" data-name="Path 153" d="M478.771,161.771a1.262,1.262,0,0,1-.632-2.355l6.432-3.713a1.3,1.3,0,0,1,1.724.462,1.264,1.264,0,0,1-.462,1.723L479.4,161.6A1.26,1.26,0,0,1,478.771,161.771Zm6.431-5.237a.265.265,0,0,0-.131.035l-6.432,3.713a.262.262,0,0,0,.262.453l6.432-3.713a.261.261,0,0,0-.131-.488Z" fill="#ed1d24"></path></g></g><g id="Group_116" data-name="Group 116"><g id="Group_115" data-name="Group 115"><path id="Path_154" data-name="Path 154" d="M489.925,175.184H482.5a.762.762,0,0,1,0-1.524h7.427a.762.762,0,1,1,0,1.524Z" fill="#fff"></path><path id="Path_155" data-name="Path 155" d="M489.925,175.684H482.5a1.262,1.262,0,0,1,0-2.524h7.426a1.262,1.262,0,0,1,0,2.524ZM482.5,174.16a.262.262,0,0,0,0,.524h7.426a.262.262,0,0,0,0-.524Z" fill="#ed1d24"></path></g></g><g id="Group_118" data-name="Group 118"><g id="Group_117" data-name="Group 117"><path id="Path_156" data-name="Path 156" d="M485.2,192.811a.752.752,0,0,1-.38-.1l-6.431-3.713a.761.761,0,1,1,.761-1.319l6.432,3.713a.762.762,0,0,1-.382,1.422Z" fill="#fff"></path><path id="Path_157" data-name="Path 157" d="M485.2,193.311a1.25,1.25,0,0,1-.631-.171l-6.431-3.712a1.264,1.264,0,0,1-.462-1.723,1.3,1.3,0,0,1,1.725-.462l6.431,3.713a1.262,1.262,0,0,1-.632,2.355Zm-6.43-5.238a.262.262,0,0,0-.132.489l6.432,3.713a.251.251,0,0,0,.359-.1.263.263,0,0,0-.1-.357l-6.432-3.713A.263.263,0,0,0,478.771,188.073Z" fill="#ed1d24"></path></g></g><g id="Group_120" data-name="Group 120"><g id="Group_119" data-name="Group 119"><path id="Path_158" data-name="Path 158" d="M424.143,192.811a.762.762,0,0,1-.382-1.422l6.432-3.713a.761.761,0,0,1,.761,1.319l-6.431,3.713A.752.752,0,0,1,424.143,192.811Z" fill="#fff"></path><path id="Path_159" data-name="Path 159" d="M424.143,193.311a1.264,1.264,0,0,1-1.094-.633,1.26,1.26,0,0,1,.463-1.722l6.431-3.713a1.293,1.293,0,0,1,1.724.463,1.262,1.262,0,0,1-.463,1.722l-6.431,3.713A1.251,1.251,0,0,1,424.143,193.311Zm6.431-5.238a.261.261,0,0,0-.131.036l-6.431,3.713a.263.263,0,0,0-.1.357.252.252,0,0,0,.356.1l6.433-3.714a.259.259,0,0,0,.1-.357A.257.257,0,0,0,430.574,188.073Z" fill="#ed1d24"></path></g></g><g id="Group_122" data-name="Group 122"><g id="Group_121" data-name="Group 121"><path id="Path_160" data-name="Path 160" d="M426.846,175.184h-7.427a.762.762,0,0,1,0-1.524h7.427a.762.762,0,0,1,0,1.524Z" fill="#fff"></path><path id="Path_161" data-name="Path 161" d="M426.846,175.684h-7.427a1.262,1.262,0,0,1,0-2.524h7.427a1.262,1.262,0,0,1,0,2.524Zm-7.427-1.524a.262.262,0,0,0,0,.524h7.427a.262.262,0,0,0,0-.524Z" fill="#ed1d24"></path></g></g><g id="Group_124" data-name="Group 124"><g id="Group_123" data-name="Group 123"><path id="Path_162" data-name="Path 162" d="M430.573,161.271a.761.761,0,0,1-.38-.1l-6.432-3.714a.762.762,0,0,1,.762-1.319l6.431,3.714a.761.761,0,0,1-.381,1.421Z" fill="#fff"></path><path id="Path_163" data-name="Path 163" d="M430.573,161.771a1.261,1.261,0,0,1-.63-.169l-6.431-3.714a1.259,1.259,0,0,1-.462-1.723,1.293,1.293,0,0,1,1.723-.461l6.431,3.712a1.262,1.262,0,0,1-.631,2.355Zm-6.43-5.237a.261.261,0,0,0-.253.329.257.257,0,0,0,.122.159l6.431,3.713a.251.251,0,0,0,.357-.094.261.261,0,0,0-.1-.359l-6.431-3.713A.264.264,0,0,0,424.143,156.534Z" fill="#ed1d24"></path></g></g><g id="Group_126" data-name="Group 126"><g id="Group_125" data-name="Group 125"><path id="Path_164" data-name="Path 164" d="M440.76,151.086a.762.762,0,0,1-.661-.381l-3.713-6.432a.762.762,0,0,1,1.319-.762l3.714,6.432a.762.762,0,0,1-.279,1.04A.752.752,0,0,1,440.76,151.086Z" fill="#fff"></path><path id="Path_165" data-name="Path 165" d="M440.76,151.586a1.265,1.265,0,0,1-1.094-.632l-3.713-6.431a1.261,1.261,0,0,1,.462-1.723,1.3,1.3,0,0,1,1.724.461l3.712,6.432a1.262,1.262,0,0,1-1.091,1.893Zm-3.715-7.955a.258.258,0,0,0-.13.034.262.262,0,0,0-.1.358l3.713,6.432a.262.262,0,0,0,.453-.262l-3.713-6.432A.262.262,0,0,0,437.045,143.631Z" fill="#ed1d24"></path></g></g><g id="Group_127" data-name="Group 127"><rect id="Rectangle_9" data-name="Rectangle 9" width="25.595" height="7.354" rx="3.64" transform="translate(441.788 210.806)" fill="#fff"></rect><path id="Path_166" data-name="Path 166" d="M463.742,218.661H445.428a4.178,4.178,0,0,1,0-8.355h18.314a4.178,4.178,0,0,1,0,8.355Zm-18.314-7.355a3.178,3.178,0,0,0,0,6.355h18.314a3.178,3.178,0,0,0,0-6.355Z"></path></g><g id="Group_128" data-name="Group 128"><rect id="Rectangle_10" data-name="Rectangle 10" width="25.595" height="7.355" rx="3.64" transform="translate(441.788 218.161)" fill="#fff"></rect><path id="Path_167" data-name="Path 167" d="M463.742,226.015H445.428a4.177,4.177,0,0,1,0-8.354h18.314a4.177,4.177,0,0,1,0,8.354Zm-18.314-7.354a3.177,3.177,0,0,0,0,6.354h18.314a3.177,3.177,0,0,0,0-6.354Z"></path></g><path id="Path_168" data-name="Path 168" d="M455.856,261.741s-1.687-8.187,3.625-11.812,14.625-1.813,17.313-4.75C476.794,245.179,474.419,266.679,455.856,261.741Z" fill="#ed1d24"></path><path id="Path_169" data-name="Path 169" d="M459.856,250.679c4.983-3.4,13.485-2.017,16.738-4.257.146-.772.2-1.243.2-1.243-2.688,2.937-12,1.125-17.313,4.75s-3.625,11.812-3.625,11.812c.091.025.176.038.267.061C455.855,259.767,455.468,253.673,459.856,250.679Z" fill="#f4f5f6"></path><g id="Group_129" data-name="Group 129"><path id="Path_170" data-name="Path 170" d="M461.091,262.978a20.986,20.986,0,0,1-5.364-.753.5.5,0,0,1-.361-.382c-.072-.348-1.691-8.558,3.832-12.327,2.854-1.947,6.766-2.376,10.218-2.755,3-.33,5.839-.642,7.008-1.919a.5.5,0,0,1,.866.392C477.271,245.412,475.166,262.978,461.091,262.978Zm-4.8-1.64a19.724,19.724,0,0,0,4.8.64c11.07,0,14.258-11.775,15.006-15.642-1.572.87-3.929,1.129-6.571,1.419-3.336.366-7.117.781-9.763,2.587C455.342,253.358,456.064,259.861,456.293,261.338Z" fill="#374450"></path></g><g id="Group_130" data-name="Group 130"><path id="Path_171" data-name="Path 171" d="M454.585,269.3a.5.5,0,0,1-.5-.5c0-12.842,11.892-15.44,12.012-15.465a.5.5,0,0,1,.2.979c-.458.1-11.214,2.471-11.214,14.486A.5.5,0,0,1,454.585,269.3Z"></path></g><g id="Group_133" data-name="Group 133"><path id="Path_172" data-name="Path 172" d="M452.646,249.9c.885-1.637,2.382-8.514-2.483-12.209s-13.332-3.088-17.532-4.23c-3.438-.935-7.308-4.144-7.308-4.144s1.822,16,10.2,21.285C444.864,256.5,451.76,251.542,452.646,249.9Z" fill="#ed1d24"></path><path id="Path_173" data-name="Path 173" d="M425.682,230.7s3.87,3.208,7.308,4.144c4.2,1.142,12.667.534,17.532,4.229a8.266,8.266,0,0,1,2.851,3.986,8.507,8.507,0,0,0-3.21-5.361c-4.865-3.7-13.332-3.087-17.532-4.229-3.438-.936-7.308-4.144-7.308-4.144a48.966,48.966,0,0,0,1.366,6.669A46.906,46.906,0,0,1,425.682,230.7Z" fill="#f4f5f6"></path><g id="Group_131" data-name="Group 131"><path id="Path_174" data-name="Path 174" d="M444.341,253.914h0a17.019,17.019,0,0,1-9.086-2.885c-8.481-5.35-10.353-20.989-10.428-21.652a.5.5,0,0,1,.815-.441c.038.031,3.83,3.151,7.121,4.046a34.971,34.971,0,0,0,5,.742c4.137.434,9.285.973,12.707,3.573,5.158,3.917,3.537,11.148,2.619,12.845C452.374,251.457,449.078,253.914,444.341,253.914ZM426,230.475c.62,3.795,3.038,15.449,9.79,19.708a16.041,16.041,0,0,0,8.553,2.731c4.352,0,7.349-2.292,7.866-3.248.8-1.469,2.23-8.1-2.345-11.573-3.2-2.43-8.194-2.954-12.206-3.374a35.611,35.611,0,0,1-5.155-.772A22.014,22.014,0,0,1,426,230.475Z" fill="#374450"></path></g><g id="Group_132" data-name="Group 132"><path id="Path_175" data-name="Path 175" d="M454.577,262.483h-.02a.5.5,0,0,1-.48-.52,29.548,29.548,0,0,0-1.456-9.526c-1.6-4.673-12.916-10.2-13.03-10.252a.5.5,0,0,1,.436-.9c.481.233,11.809,5.763,13.541,10.83A30.015,30.015,0,0,1,455.077,262,.5.5,0,0,1,454.577,262.483Z"></path></g></g><g id="Group_134" data-name="Group 134"><path id="Path_176" data-name="Path 176" d="M454.585,287.7a.5.5,0,0,1-.5-.5V231.344a.5.5,0,0,1,1,0V287.2A.5.5,0,0,1,454.585,287.7Z"></path></g><g id="Group_135" data-name="Group 135"><path id="Path_177" data-name="Path 177" d="M443.625,244.3a.519.519,0,0,1-.172-.03.5.5,0,0,1-.3-.642,7.406,7.406,0,0,0,.028-5.635.5.5,0,0,1,.884-.469,8.256,8.256,0,0,1,.028,6.448A.5.5,0,0,1,443.625,244.3Z"></path></g><g id="Group_136" data-name="Group 136"><path id="Path_178" data-name="Path 178" d="M442.631,248.834a4.371,4.371,0,0,1-.96-.087.5.5,0,0,1,.231-.973c.034.008,2.422.509,5.648-1.653a.5.5,0,0,1,.557.83A9.9,9.9,0,0,1,442.631,248.834Z"></path></g><g id="Group_137" data-name="Group 137"><path id="Path_179" data-name="Path 179" d="M461.4,256.4a.5.5,0,0,1-.493-.418,10.924,10.924,0,0,1,1.082-5.7.5.5,0,0,1,.9.446,10.062,10.062,0,0,0-.991,5.086.5.5,0,0,1-.412.574A.464.464,0,0,1,461.4,256.4Z"></path></g><g id="Group_138" data-name="Group 138"><path id="Path_180" data-name="Path 180" d="M463.688,260.2c-3.844,0-5.461-1.5-5.528-1.565a.5.5,0,0,1,.688-.726c.027.025,1.451,1.291,4.84,1.291a.5.5,0,0,1,0,1Z"></path></g><g id="Group_139" data-name="Group 139"><path id="Path_181" data-name="Path 181" d="M380.66,132.533h-3.978a.981.981,0,0,1-.967-1.149l2.693-15.5a.982.982,0,0,0-1.8-.688l-9.9,15.832a.981.981,0,0,0,.832,1.5h3.978a.981.981,0,0,1,.967,1.15l-2.692,15.5a.981.981,0,0,0,1.8.688l9.9-15.832A.982.982,0,0,0,380.66,132.533Z" fill="#ed1d24"></path><path id="Path_182" data-name="Path 182" d="M370.774,150.833h0a1.539,1.539,0,0,1-1.164-.539,1.448,1.448,0,0,1-.312-1.2l2.693-15.5a.482.482,0,0,0-.475-.563h-3.978a1.483,1.483,0,0,1-1.256-2.268l9.9-15.832a1.442,1.442,0,0,1,1.24-.7,1.536,1.536,0,0,1,1.164.538,1.446,1.446,0,0,1,.312,1.2l-2.692,15.5a.482.482,0,0,0,.474.565h3.978a1.481,1.481,0,0,1,1.256,2.267l-9.9,15.832A1.439,1.439,0,0,1,370.774,150.833Zm6.65-35.6a.445.445,0,0,0-.392.23l-9.9,15.832a.482.482,0,0,0,.408.738h3.978a1.482,1.482,0,0,1,1.46,1.735l-2.692,15.5a.45.45,0,0,0,.091.385.534.534,0,0,0,.4.183h0a.445.445,0,0,0,.392-.23l9.9-15.833a.482.482,0,0,0-.409-.736h-3.978a1.482,1.482,0,0,1-1.46-1.736l2.693-15.5a.456.456,0,0,0-.092-.386A.534.534,0,0,0,377.424,115.234Z" fill="#374450"></path></g></g></g></g></svg>