<svg xmlns="http://www.w3.org/2000/svg" width="230.304" height="215.914" viewBox="0 0 230.304 215.914"><g id="Group_274" data-name="Group 274" transform="translate(-35.299 -105.233)"><g id="Group_271" data-name="Group 271"><circle id="Ellipse_1" data-name="Ellipse 1" cx="99.096" cy="99.096" r="99.096" transform="translate(49.199 122.956)" fill="#f4f4f4"></circle><g id="Group_270" data-name="Group 270"><g id="Group_269" data-name="Group 269"><rect id="Rectangle_11" data-name="Rectangle 11" width="11.341" height="22.719" transform="translate(133.688 155.572)" fill="#fff"></rect><rect id="Rectangle_12" data-name="Rectangle 12" width="11.341" height="1.636" transform="translate(133.688 155.791)" fill="#c9ced7"></rect><g id="Group_146" data-name="Group 146"><g id="Group_141" data-name="Group 141"><path id="Path_183" data-name="Path 183" d="M226.084,163.063a.5.5,0,0,1-.5-.5v-1a.5.5,0,0,1,1,0v1A.5.5,0,0,1,226.084,163.063Z"></path></g><g id="Group_142" data-name="Group 142"><path id="Path_184" data-name="Path 184" d="M226.084,263.3a.5.5,0,0,1-.5-.5v-2a.5.5,0,0,1,1,0v2A.5.5,0,0,1,226.084,263.3Zm0-4.009a.5.5,0,0,1-.5-.5v-2a.5.5,0,0,1,1,0v2A.5.5,0,0,1,226.084,259.291Zm0-4.01a.5.5,0,0,1-.5-.5v-2.005a.5.5,0,0,1,1,0v2.005A.5.5,0,0,1,226.084,255.281Zm0-4.009a.5.5,0,0,1-.5-.5v-2.005a.5.5,0,0,1,1,0v2.005A.5.5,0,0,1,226.084,251.272Zm0-4.01a.5.5,0,0,1-.5-.5v-2a.5.5,0,0,1,1,0v2A.5.5,0,0,1,226.084,247.262Zm0-4.009a.5.5,0,0,1-.5-.5v-2.005a.5.5,0,0,1,1,0v2.005A.5.5,0,0,1,226.084,243.253Zm0-4.01a.5.5,0,0,1-.5-.5v-2a.5.5,0,0,1,1,0v2A.5.5,0,0,1,226.084,239.243Zm0-4.009a.5.5,0,0,1-.5-.5v-2a.5.5,0,0,1,1,0v2A.5.5,0,0,1,226.084,235.234Zm0-4.009a.5.5,0,0,1-.5-.5V228.72a.5.5,0,0,1,1,0v2.005A.5.5,0,0,1,226.084,231.225Zm0-4.01a.5.5,0,0,1-.5-.5v-2a.5.5,0,0,1,1,0v2A.5.5,0,0,1,226.084,227.215Zm0-4.009a.5.5,0,0,1-.5-.5v-2a.5.5,0,0,1,1,0v2A.5.5,0,0,1,226.084,223.206Zm0-4.01a.5.5,0,0,1-.5-.5v-2.005a.5.5,0,0,1,1,0V218.7A.5.5,0,0,1,226.084,219.2Zm0-4.01a.5.5,0,0,1-.5-.5v-2a.5.5,0,0,1,1,0v2A.5.5,0,0,1,226.084,215.186Zm0-4.009a.5.5,0,0,1-.5-.5v-2.005a.5.5,0,0,1,1,0v2.005A.5.5,0,0,1,226.084,211.177Zm0-4.009a.5.5,0,0,1-.5-.5v-2.005a.5.5,0,0,1,1,0v2.005A.5.5,0,0,1,226.084,207.168Zm0-4.01a.5.5,0,0,1-.5-.5v-2.005a.5.5,0,0,1,1,0v2.005A.5.5,0,0,1,226.084,203.158Zm0-4.009a.5.5,0,0,1-.5-.5v-2.005a.5.5,0,0,1,1,0v2.005A.5.5,0,0,1,226.084,199.149Zm0-4.01a.5.5,0,0,1-.5-.5v-2a.5.5,0,0,1,1,0v2A.5.5,0,0,1,226.084,195.139Zm0-4.009a.5.5,0,0,1-.5-.5v-2.005a.5.5,0,0,1,1,0v2.005A.5.5,0,0,1,226.084,191.13Zm0-4.009a.5.5,0,0,1-.5-.5v-2.005a.5.5,0,0,1,1,0v2.005A.5.5,0,0,1,226.084,187.121Zm0-4.01a.5.5,0,0,1-.5-.5v-2a.5.5,0,0,1,1,0v2A.5.5,0,0,1,226.084,183.111Zm0-4.01a.5.5,0,0,1-.5-.5v-2a.5.5,0,0,1,1,0v2A.5.5,0,0,1,226.084,179.1Zm0-4.009a.5.5,0,0,1-.5-.5v-2a.5.5,0,0,1,1,0v2A.5.5,0,0,1,226.084,175.092Zm0-4.01a.5.5,0,0,1-.5-.5v-2a.5.5,0,0,1,1,0v2A.5.5,0,0,1,226.084,171.082Zm0-4.009a.5.5,0,0,1-.5-.5v-2.005a.5.5,0,0,1,1,0v2.005A.5.5,0,0,1,226.084,167.073Z"></path></g><g id="Group_143" data-name="Group 143"><path id="Path_185" data-name="Path 185" d="M226.584,266.3h-1.5a.5.5,0,0,1,0-1h.5v-.5a.5.5,0,0,1,1,0Z"></path></g><g id="Group_144" data-name="Group 144"><path id="Path_186" data-name="Path 186" d="M223.066,266.3h-2.018a.5.5,0,1,1,0-1h2.018a.5.5,0,0,1,0,1Zm-4.035,0h-2.018a.5.5,0,0,1,0-1h2.018a.5.5,0,0,1,0,1Zm-4.036,0h-2.018a.5.5,0,0,1,0-1h2.018a.5.5,0,0,1,0,1Zm-4.036,0h-2.018a.5.5,0,0,1,0-1h2.018a.5.5,0,1,1,0,1Zm-4.036,0h-2.017a.5.5,0,0,1,0-1h2.017a.5.5,0,0,1,0,1Zm-4.035,0H200.87a.5.5,0,0,1,0-1h2.018a.5.5,0,0,1,0,1Zm-4.036,0h-2.018a.5.5,0,0,1,0-1h2.018a.5.5,0,0,1,0,1Zm-4.036,0H192.8a.5.5,0,1,1,0-1h2.018a.5.5,0,0,1,0,1Zm-4.035,0h-2.018a.5.5,0,0,1,0-1h2.018a.5.5,0,0,1,0,1Zm-4.036,0h-2.018a.5.5,0,0,1,0-1h2.018a.5.5,0,0,1,0,1Zm-4.036,0h-2.018a.5.5,0,0,1,0-1h2.018a.5.5,0,1,1,0,1Zm-4.036,0h-2.017a.5.5,0,0,1,0-1h2.017a.5.5,0,0,1,0,1Zm-4.035,0H172.62a.5.5,0,0,1,0-1h2.018a.5.5,0,0,1,0,1Zm-4.036,0h-2.018a.5.5,0,0,1,0-1H170.6a.5.5,0,0,1,0,1Z"></path></g><g id="Group_145" data-name="Group 145"><path id="Path_187" data-name="Path 187" d="M166.566,266.3h-1a.5.5,0,0,1,0-1h1a.5.5,0,0,1,0,1Z"></path></g></g><g id="Group_147" data-name="Group 147"><path id="Path_188" data-name="Path 188" d="M145.528,178.79h-12.34V155.072h12.34v7.815a.5.5,0,1,1-1,0v-6.815h-10.34V177.79h10.34V165.262a.5.5,0,0,1,1,0Z"></path></g><g id="Group_148" data-name="Group 148"><rect id="Rectangle_13" data-name="Rectangle 13" width="13.212" height="2.917" transform="translate(132.752 152.654)" fill="#fff"></rect><path id="Path_189" data-name="Path 189" d="M146.464,156.072H132.252v-3.917h14.212Zm-13.212-1h12.212v-1.917H133.252Z"></path></g><g id="Group_149" data-name="Group 149"><path id="Path_190" data-name="Path 190" d="M139.921,164.306a.5.5,0,0,1-.5-.5v-4.485a.5.5,0,0,1,1,0v4.485A.5.5,0,0,1,139.921,164.306Z"></path></g><path id="Path_191" data-name="Path 191" d="M163.384,287.2H60.6V191.665l51.393-40.707,51.393,40.707Z" fill="#fff"></path><rect id="Rectangle_14" data-name="Rectangle 14" width="50.647" height="3.3" transform="translate(60.984 230.054)" fill="#c9ced7"></rect><g id="Group_150" data-name="Group 150"><path id="Path_192" data-name="Path 192" d="M163.884,287.7H60.1V191.423l.189-.15,51.7-40.953,51.893,41.1ZM61.1,286.7H162.884V191.907L111.991,151.6,61.1,191.907Z"></path></g><g id="Group_151" data-name="Group 151"><path id="Path_193" data-name="Path 193" d="M111.991,198.45v0Z" fill="#fff"></path><path id="Path_194" data-name="Path 194" d="M111.991,287.7a.5.5,0,0,1-.5-.5V198.45a.5.5,0,0,1,1,0V287.2A.5.5,0,0,1,111.991,287.7Z"></path></g><g id="Group_152" data-name="Group 152"><path id="Path_195" data-name="Path 195" d="M111.991,192.324v0Z" fill="#fff"></path><path id="Path_196" data-name="Path 196" d="M111.991,194.7a.5.5,0,0,1-.5-.5v-1.875a.5.5,0,0,1,1,0V194.2A.5.5,0,0,1,111.991,194.7Z"></path></g><g id="Group_153" data-name="Group 153"><path id="Path_197" data-name="Path 197" d="M111.991,150.957v0Z" fill="#fff"></path><path id="Path_198" data-name="Path 198" d="M111.991,186.075a.5.5,0,0,1-.5-.5V150.957a.5.5,0,0,1,1,0v34.618A.5.5,0,0,1,111.991,186.075Z"></path></g><g id="Group_154" data-name="Group 154"><rect id="Rectangle_15" data-name="Rectangle 15" width="2.151" height="7.515" transform="translate(58.446 279.683)" fill="#fff"></rect><path id="Path_199" data-name="Path 199" d="M61.1,287.7H57.946v-8.515H61.1Zm-2.152-1H60.1v-6.515H58.946Z"></path></g><g id="Group_155" data-name="Group 155"><path id="Path_200" data-name="Path 200" d="M145.028,178.79H79.143a.5.5,0,0,1,0-1h65.885a.5.5,0,0,1,0,1Z"></path></g><g id="Group_156" data-name="Group 156"><path id="Path_201" data-name="Path 201" d="M111.991,178.79a.5.5,0,0,1-.349-.142l-15.477-15.1a.5.5,0,0,1,.7-.716l15.476,15.1a.5.5,0,0,1-.349.858Z"></path></g><g id="Group_157" data-name="Group 157"><path id="Path_202" data-name="Path 202" d="M111.991,178.79a.5.5,0,0,1-.349-.858l15.476-15.1a.5.5,0,1,1,.7.716l-15.477,15.1A.5.5,0,0,1,111.991,178.79Z"></path></g><g id="Group_173" data-name="Group 173"><rect id="Rectangle_16" data-name="Rectangle 16" width="39.376" height="3.3" transform="translate(118.06 230.054)" fill="#c9ced7"></rect><g id="Group_171" data-name="Group 171"><g id="Group_158" data-name="Group 158"><rect id="Rectangle_17" data-name="Rectangle 17" width="36.626" height="30.357" transform="translate(119.435 197.718)" fill="#fff"></rect><path id="Path_203" data-name="Path 203" d="M156.561,228.575H118.935V197.218h37.626Zm-36.626-1h35.626V198.218H119.935Z"></path></g><g id="Group_159" data-name="Group 159"><rect id="Rectangle_18" data-name="Rectangle 18" width="33.986" height="27.717" transform="translate(120.755 199.038)" fill="#fff"></rect><path id="Path_204" data-name="Path 204" d="M155.242,227.255H120.255V198.538h34.987Zm-33.987-1h32.987V199.538H121.255Z"></path></g><g id="Group_160" data-name="Group 160"><path id="Path_205" data-name="Path 205" d="M143.413,199.106v0Z" fill="#fff"></path><path id="Path_206" data-name="Path 206" d="M143.412,227.213a.5.5,0,0,1-.5-.5V199.106a.5.5,0,0,1,1,0v27.607A.5.5,0,0,1,143.412,227.213Z"></path></g><g id="Group_161" data-name="Group 161"><path id="Path_207" data-name="Path 207" d="M132.084,199.106v0Z" fill="#fff"></path><path id="Path_208" data-name="Path 208" d="M132.084,227.213a.5.5,0,0,1-.5-.5V199.106a.5.5,0,0,1,1,0v27.607A.5.5,0,0,1,132.084,227.213Z"></path></g><g id="Group_164" data-name="Group 164"><g id="Group_162" data-name="Group 162"><path id="Path_209" data-name="Path 209" d="M122.35,209.134a.5.5,0,0,1-.354-.853l5.087-5.087a.5.5,0,0,1,.707.707l-5.087,5.087A.5.5,0,0,1,122.35,209.134Z"></path></g><g id="Group_163" data-name="Group 163"><path id="Path_210" data-name="Path 210" d="M126.159,207.333a.5.5,0,0,1-.354-.853l2.021-2.022a.5.5,0,0,1,.707.707l-2.021,2.022A.5.5,0,0,1,126.159,207.333Z"></path></g></g><g id="Group_167" data-name="Group 167"><g id="Group_165" data-name="Group 165"><path id="Path_211" data-name="Path 211" d="M134.833,209.134a.5.5,0,0,1-.353-.853l5.087-5.087a.5.5,0,0,1,.707.707l-5.087,5.087A.5.5,0,0,1,134.833,209.134Z"></path></g><g id="Group_166" data-name="Group 166"><path id="Path_212" data-name="Path 212" d="M138.642,207.333a.5.5,0,0,1-.354-.853l2.021-2.022a.5.5,0,0,1,.707.707l-2.021,2.022A.494.494,0,0,1,138.642,207.333Z"></path></g></g><g id="Group_170" data-name="Group 170"><g id="Group_168" data-name="Group 168"><path id="Path_213" data-name="Path 213" d="M147.317,209.134a.5.5,0,0,1-.353-.853l5.087-5.087a.5.5,0,0,1,.707.707l-5.087,5.087A.5.5,0,0,1,147.317,209.134Z" fill="#374450"></path></g><g id="Group_169" data-name="Group 169"><path id="Path_214" data-name="Path 214" d="M151.125,207.333a.5.5,0,0,1-.353-.853l2.021-2.022a.5.5,0,0,1,.707.707l-2.021,2.022A.5.5,0,0,1,151.125,207.333Z" fill="#374450"></path></g></g></g><g id="Group_172" data-name="Group 172"><path id="Path_215" data-name="Path 215" d="M157.936,230.554H117.56v-2.979h40.376Zm-39.376-1h38.376v-.979H118.56Z"></path></g></g><g id="Group_189" data-name="Group 189"><rect id="Rectangle_19" data-name="Rectangle 19" width="39.376" height="3.3" transform="translate(118.06 276.384)" fill="#f4f4f4"></rect><g id="Group_187" data-name="Group 187"><g id="Group_174" data-name="Group 174"><rect id="Rectangle_20" data-name="Rectangle 20" width="36.626" height="30.357" transform="translate(119.435 244.047)" fill="#fff"></rect><path id="Path_216" data-name="Path 216" d="M156.561,274.9H118.935V243.547h37.626Zm-36.626-1h35.626V244.547H119.935Z"></path></g><g id="Group_175" data-name="Group 175"><rect id="Rectangle_21" data-name="Rectangle 21" width="33.986" height="27.717" transform="translate(120.755 245.367)" fill="#fff"></rect><path id="Path_217" data-name="Path 217" d="M155.242,273.584H120.255V244.867h34.987Zm-33.987-1h32.987V245.867H121.255Z"></path></g><g id="Group_176" data-name="Group 176"><path id="Path_218" data-name="Path 218" d="M143.413,245.436v0Z" fill="#fff"></path><path id="Path_219" data-name="Path 219" d="M143.412,273.543a.5.5,0,0,1-.5-.5V245.436a.5.5,0,0,1,1,0v27.607A.5.5,0,0,1,143.412,273.543Z"></path></g><g id="Group_177" data-name="Group 177"><path id="Path_220" data-name="Path 220" d="M132.084,245.436v0Z" fill="#fff"></path><path id="Path_221" data-name="Path 221" d="M132.084,273.543a.5.5,0,0,1-.5-.5V245.436a.5.5,0,0,1,1,0v27.607A.5.5,0,0,1,132.084,273.543Z"></path></g><g id="Group_180" data-name="Group 180"><g id="Group_178" data-name="Group 178"><path id="Path_222" data-name="Path 222" d="M122.35,255.464a.5.5,0,0,1-.354-.854l5.087-5.087a.5.5,0,1,1,.707.707l-5.087,5.087A.5.5,0,0,1,122.35,255.464Z"></path></g><g id="Group_179" data-name="Group 179"><path id="Path_223" data-name="Path 223" d="M126.159,253.663a.5.5,0,0,1-.354-.854l2.021-2.021a.5.5,0,0,1,.707.707l-2.021,2.021A.5.5,0,0,1,126.159,253.663Z"></path></g></g><g id="Group_183" data-name="Group 183"><g id="Group_181" data-name="Group 181"><path id="Path_224" data-name="Path 224" d="M134.833,255.464a.5.5,0,0,1-.353-.147.5.5,0,0,1,0-.707l5.087-5.087a.5.5,0,1,1,.707.707l-5.087,5.087A.5.5,0,0,1,134.833,255.464Z"></path></g><g id="Group_182" data-name="Group 182"><path id="Path_225" data-name="Path 225" d="M138.642,253.663a.5.5,0,0,1-.354-.854l2.021-2.021a.5.5,0,0,1,.707.707l-2.021,2.021A.5.5,0,0,1,138.642,253.663Z"></path></g></g><g id="Group_186" data-name="Group 186"><g id="Group_184" data-name="Group 184"><path id="Path_226" data-name="Path 226" d="M147.317,255.464a.5.5,0,0,1-.353-.854l5.087-5.087a.5.5,0,1,1,.707.707l-5.087,5.087A.5.5,0,0,1,147.317,255.464Z"></path></g><g id="Group_185" data-name="Group 185"><path id="Path_227" data-name="Path 227" d="M151.125,253.663a.5.5,0,0,1-.353-.854l2.021-2.021a.5.5,0,0,1,.707.707l-2.021,2.021A.5.5,0,0,1,151.125,253.663Z"></path></g></g></g><g id="Group_188" data-name="Group 188"><path id="Path_228" data-name="Path 228" d="M157.936,276.884H117.56V273.9h40.376Zm-39.376-1h38.376v-.98H118.56Z"></path></g></g><g id="Group_190" data-name="Group 190"><path id="Path_229" data-name="Path 229" d="M181.262,207.623a1.989,1.989,0,0,1-1.238-.43l-68.032-53.687L44.384,206.95a2,2,0,0,1-2.481-3.138l70.087-55.4L182.5,204.054a2,2,0,0,1-1.24,3.569Z"></path></g><g id="Group_191" data-name="Group 191"><path id="Path_230" data-name="Path 230" d="M181.263,206.623a1,1,0,0,1-.62-.214l-68.651-54.177L43.764,206.166a1,1,0,0,1-1.241-1.569l69.468-54.914,69.892,55.155a1,1,0,0,1-.62,1.785Z" fill="#ed1d24"></path></g><g id="Group_192" data-name="Group 192"><rect id="Rectangle_22" data-name="Rectangle 22" width="53.545" height="7.515" transform="translate(112.021 279.683)" fill="#fff"></rect><path id="Path_231" data-name="Path 231" d="M166.066,287.7H111.521v-8.515h54.545Zm-53.545-1h52.545v-6.515H112.521Z"></path></g><g id="Group_193" data-name="Group 193"><path id="Path_232" data-name="Path 232" d="M67.125,216.472h44.866v13.582h-56.3V216.472H67.125Z" fill="#fff"></path><path id="Path_233" data-name="Path 233" d="M112.491,230.554h-57.3V215.972h8.521a.5.5,0,0,1,0,1H56.188v12.582h55.3V216.972H67.125a.5.5,0,0,1,0-1h45.366Z"></path></g><g id="Group_194" data-name="Group 194"><rect id="Rectangle_23" data-name="Rectangle 23" width="24.281" height="45.333" transform="translate(74.416 241.866)" fill="#fff"></rect><path id="Path_234" data-name="Path 234" d="M99.2,287.7H73.915V241.366H99.2Zm-24.282-1H98.2V242.366H74.915Z"></path></g><g id="Group_195" data-name="Group 195"><rect id="Rectangle_24" data-name="Rectangle 24" width="19.917" height="43.151" transform="translate(76.597 244.047)" fill="#fff"></rect><path id="Path_235" data-name="Path 235" d="M97.015,287.7H76.1V243.547H97.015Zm-19.917-1H96.015V244.547H77.1Z"></path></g><g id="Group_196" data-name="Group 196"><rect id="Rectangle_25" data-name="Rectangle 25" width="17.008" height="18.666" transform="translate(78.052 245.502)" fill="#fff"></rect><path id="Path_236" data-name="Path 236" d="M95.56,264.668H77.552V245H95.56Zm-17.008-1H94.56V246H78.552Z"></path></g><g id="Group_197" data-name="Group 197"><path id="Path_237" data-name="Path 237" d="M143.412,162.063h-3.491a.5.5,0,0,1,0-1h3.491a.5.5,0,0,1,0,1Z"></path></g><g id="Group_198" data-name="Group 198"><rect id="Rectangle_26" data-name="Rectangle 26" width="7.777" height="18.666" transform="translate(78.052 267.078)" fill="#fff"></rect><path id="Path_238" data-name="Path 238" d="M86.329,286.244H77.552V266.578h8.777Zm-7.777-1h6.777V267.578H78.552Z"></path></g><g id="Group_199" data-name="Group 199"><rect id="Rectangle_27" data-name="Rectangle 27" width="7.777" height="18.666" transform="translate(87.283 267.078)" fill="#fff"></rect><path id="Path_239" data-name="Path 239" d="M95.56,286.244H86.784V266.578H95.56Zm-7.776-1H94.56V267.578H87.784Z"></path></g><g id="Group_200" data-name="Group 200"><path id="Path_240" data-name="Path 240" d="M89.391,264.623a.5.5,0,0,1-.5-.5V245.5a.5.5,0,0,1,1,0v18.621A.5.5,0,0,1,89.391,264.623Z"></path></g><g id="Group_201" data-name="Group 201"><path id="Path_241" data-name="Path 241" d="M95.06,252.224H78.014a.5.5,0,0,1,0-1H95.06a.5.5,0,0,1,0,1Z"></path></g><g id="Group_202" data-name="Group 202"><path id="Path_242" data-name="Path 242" d="M95.06,258.446H78.014a.5.5,0,0,1,0-1H95.06a.5.5,0,0,1,0,1Z"></path></g><g id="Group_203" data-name="Group 203"><path id="Path_243" data-name="Path 243" d="M83.722,264.623a.5.5,0,0,1-.5-.5V245.5a.5.5,0,0,1,1,0v18.621A.5.5,0,0,1,83.722,264.623Z"></path></g><g id="Group_204" data-name="Group 204"><path id="Path_244" data-name="Path 244" d="M172.96,287.7H41.406a.5.5,0,0,1,0-1H172.96a.5.5,0,0,1,0,1Z"></path></g><g id="Group_211" data-name="Group 211"><path id="Path_245" data-name="Path 245" d="M53.071,270.615a4.982,4.982,0,0,1-4.844,6.146H40.783a4.982,4.982,0,0,1-4.845-6.146l7.916-32.949a.669.669,0,0,1,1.3,0Z" fill="#ed1d24"></path><path id="Path_246" data-name="Path 246" d="M43.854,241.207a.669.669,0,0,1,1.3,0l7.754,32.273a4.947,4.947,0,0,0,.162-2.865l-7.916-32.949a.669.669,0,0,0-1.3,0l-7.916,32.949a4.939,4.939,0,0,0,.163,2.865Z" fill="#fff"></path><g id="Group_205" data-name="Group 205"><path id="Path_247" data-name="Path 247" d="M48.226,277.261H40.783a5.483,5.483,0,0,1-5.331-6.763l7.916-32.949a1.169,1.169,0,0,1,2.273,0L53.558,270.5a5.484,5.484,0,0,1-5.332,6.763Zm-3.721-39.608a.155.155,0,0,0-.164.13l-7.916,32.948a4.483,4.483,0,0,0,4.358,5.53h7.443a4.483,4.483,0,0,0,4.359-5.53l-7.916-32.948A.157.157,0,0,0,44.505,237.653Z"></path></g><g id="Group_206" data-name="Group 206"><path id="Path_248" data-name="Path 248" d="M44.505,287.488a.5.5,0,0,1-.5-.5V254.97a.5.5,0,1,1,1,0v32.018A.5.5,0,0,1,44.505,287.488Z"></path></g><g id="Group_207" data-name="Group 207"><path id="Path_249" data-name="Path 249" d="M44.505,265.94a.5.5,0,0,1-.354-.146l-2.334-2.335a.5.5,0,1,1,.707-.707l2.334,2.335a.5.5,0,0,1-.353.853Z"></path></g><g id="Group_208" data-name="Group 208"><path id="Path_250" data-name="Path 250" d="M44.505,260.247a.5.5,0,0,1-.354-.854l2.313-2.312a.5.5,0,1,1,.707.707L44.858,260.1A.5.5,0,0,1,44.505,260.247Z"></path></g><g id="Group_209" data-name="Group 209"><path id="Path_251" data-name="Path 251" d="M44.505,272.3a.5.5,0,0,1-.354-.854l4.17-4.169a.5.5,0,0,1,.707.707l-4.17,4.169A.5.5,0,0,1,44.505,272.3Z"></path></g><g id="Group_210" data-name="Group 210"><path id="Path_252" data-name="Path 252" d="M47.426,269.384a.5.5,0,0,1-.354-.147l-1.248-1.248a.5.5,0,0,1,.707-.707l1.248,1.248a.5.5,0,0,1,0,.707A.5.5,0,0,1,47.426,269.384Z"></path></g></g><g id="Group_212" data-name="Group 212"><rect id="Rectangle_28" data-name="Rectangle 28" width="3.636" height="51.468" transform="translate(224.304 235.73)" fill="#f4f4f4"></rect><path id="Path_253" data-name="Path 253" d="M228.44,287.7H223.8V235.23h4.636Zm-3.636-1h2.636V236.23H224.8Z"></path></g><rect id="Rectangle_29" data-name="Rectangle 29" width="3.636" height="18.706" transform="translate(224.304 235.73)"></rect><g id="Group_213" data-name="Group 213"><rect id="Rectangle_30" data-name="Rectangle 30" width="6.47" height="10.303" transform="translate(226.084 260.653)" fill="#fff"></rect><path id="Path_254" data-name="Path 254" d="M233.054,271.456h-7.47v-11.3h7.47Zm-6.47-1h5.47v-9.3h-5.47Z"></path></g><g id="Group_214" data-name="Group 214"><path id="Path_255" data-name="Path 255" d="M234.22,287.2H217.948v-.022a2.069,2.069,0,0,1,2.07-2.069H232.15a2.069,2.069,0,0,1,2.07,2.069Z" fill="#fff"></path><path id="Path_256" data-name="Path 256" d="M234.221,287.7H217.448v-.5a2.577,2.577,0,0,1,2.57-2.591H232.15a2.572,2.572,0,0,1,2.571,2.569v.5Zm-15.7-1h15.123a1.574,1.574,0,0,0-1.5-1.091H220.018A1.572,1.572,0,0,0,218.523,286.7Z"></path></g><g id="Group_215" data-name="Group 215"><path id="Path_257" data-name="Path 257" d="M213.491,208.342H190.568l1.381-15.441h22.033Z" fill="#fff"></path><path id="Path_258" data-name="Path 258" d="M213.975,208.842H190.02l1.471-16.441H214.5Zm-22.861-1h21.893l.458-14.441H192.406Z"></path></g><g id="Group_216" data-name="Group 216"><path id="Path_259" data-name="Path 259" d="M237.584,208.342H214.66l.445-15.441h22.033Z" fill="#fff"></path><path id="Path_260" data-name="Path 260" d="M238.1,208.842H214.145l.475-16.441h23Zm-22.923-1h21.894l-.416-14.441H215.591Z"></path></g><g id="Group_217" data-name="Group 217"><path id="Path_261" data-name="Path 261" d="M246.917,192.9H260.3l1.381,15.441H238.753l-.49-15.441h8.655Z" fill="#fff"></path><path id="Path_262" data-name="Path 262" d="M262.223,208.842H238.268l-.522-16.441h5.734a.5.5,0,0,1,0,1h-4.7l.459,14.441h21.892L259.838,193.4H246.917a.5.5,0,1,1,0-1h13.836Z"></path></g><g id="Group_218" data-name="Group 218"><path id="Path_263" data-name="Path 263" d="M212.912,226.58H188.937l1.508-16.86h23Z" fill="#fff"></path><path id="Path_264" data-name="Path 264" d="M213.4,227.08H188.39l1.6-17.859h23.976Zm-23.912-1h22.943l.5-15.859H190.9Z"></path></g><g id="Group_219" data-name="Group 219"><path id="Path_265" data-name="Path 265" d="M238.109,226.58H214.134l.486-16.86h23Z" fill="#fff"></path><path id="Path_266" data-name="Path 266" d="M238.624,227.08h-25l.515-17.859h23.974Zm-23.975-1H237.6l-.457-15.859H215.106Z"></path></g><g id="Group_220" data-name="Group 220"><path id="Path_267" data-name="Path 267" d="M263.307,226.58H239.332l-.536-16.86h23Z" fill="#fff"></path><path id="Path_268" data-name="Path 268" d="M263.854,227.08H238.848l-.567-17.859h23.976Zm-24.038-1H262.76l-1.418-15.859H239.313Z"></path></g><g id="Group_221" data-name="Group 221"><path id="Path_269" data-name="Path 269" d="M212.29,246.14h-25.1l1.65-18.448h24.039Z" fill="#fff"></path><path id="Path_270" data-name="Path 270" d="M212.774,246.64H186.641l1.739-19.448h25.012Zm-25.039-1h24.071l.554-17.448H189.295Z"></path></g><g id="Group_222" data-name="Group 222"><path id="Path_271" data-name="Path 271" d="M238.673,246.14h-25.1l.532-18.448h24.039Z" fill="#fff"></path><path id="Path_272" data-name="Path 272" d="M239.188,246.64H213.056l.561-19.448h25.01Zm-25.1-1h24.074l-.5-17.448H214.588Z"></path></g><g id="Group_223" data-name="Group 223"><path id="Path_273" data-name="Path 273" d="M265.056,246.14h-25.1l-.586-18.448h24.039Z" fill="#fff"></path><path id="Path_274" data-name="Path 274" d="M265.6,246.64H239.469l-.618-19.448h25.013Zm-25.165-1h24.071l-1.56-17.448H239.884Z"></path></g><g id="Group_224" data-name="Group 224"><rect id="Rectangle_31" data-name="Rectangle 31" width="77.868" height="2.514" transform="translate(187.188 246.14)" fill="#ed1d24"></rect><path id="Path_275" data-name="Path 275" d="M265.556,249.153H186.688V245.64h78.868Zm-77.868-1h76.868V246.64H187.688Z"></path></g><circle id="Ellipse_7" data-name="Ellipse 7" cx="15.959" cy="15.959" r="15.959" transform="translate(206.919 144.454) rotate(-76.881)" fill="#ffb800"></circle><path id="Path_276" data-name="Path 276" d="M211.125,133.533a15.94,15.94,0,0,1,26.72-11.761,15.942,15.942,0,1,0-22.522,22.522A15.881,15.881,0,0,1,211.125,133.533Z" fill="#fff"></path><g id="Group_225" data-name="Group 225"><path id="Path_277" data-name="Path 277" d="M226.084,148.993a16.459,16.459,0,1,1,16.459-16.459A16.478,16.478,0,0,1,226.084,148.993Zm0-31.919a15.459,15.459,0,1,0,15.459,15.46A15.477,15.477,0,0,0,226.084,117.074Z"></path></g><g id="Group_233" data-name="Group 233"><g id="Group_226" data-name="Group 226"><path id="Path_278" data-name="Path 278" d="M90.317,123.764a10.181,10.181,0,0,0-20.363,0H90.317Z" fill="#fff"></path><path id="Path_279" data-name="Path 279" d="M90.317,124.265a.5.5,0,0,1-.5-.5,9.681,9.681,0,1,0-19.363,0v.5h-8.8a.5.5,0,1,1,0-1h7.815a10.681,10.681,0,0,1,21.351.5A.5.5,0,0,1,90.317,124.265Z"></path></g><g id="Group_227" data-name="Group 227"><path id="Path_280" data-name="Path 280" d="M106.069,128.855a10.181,10.181,0,1,0-20.363,0Z" fill="#fff"></path><path id="Path_281" data-name="Path 281" d="M106.069,129.355a.5.5,0,0,1-.5-.5,9.681,9.681,0,0,0-19.363,0,.5.5,0,0,1-1,0,10.681,10.681,0,0,1,21.363,0A.5.5,0,0,1,106.069,129.355Z"></path></g><g id="Group_228" data-name="Group 228"><path id="Path_282" data-name="Path 282" d="M92.544,132.189a5.28,5.28,0,0,0-10.552,0H92.544Z" fill="#fff"></path><path id="Path_283" data-name="Path 283" d="M92.544,132.688a.5.5,0,0,1-.5-.481,4.78,4.78,0,0,0-9.554,0l-.018.481H76.8a.5.5,0,0,1,0-1H81.53a5.78,5.78,0,0,1,11.514.481.5.5,0,0,1-.481.519Z"></path></g><g id="Group_229" data-name="Group 229"><path id="Path_284" data-name="Path 284" d="M110.392,131.927a4.347,4.347,0,0,0-8.665.262H98.069Z" fill="#fff"></path><path id="Path_285" data-name="Path 285" d="M102.2,132.688H98.07a.5.5,0,0,1,0-1h3.2a4.847,4.847,0,0,1,9.616.185.5.5,0,0,1-1,.107,3.847,3.847,0,0,0-7.668.232Z"></path></g><g id="Group_230" data-name="Group 230"><path id="Path_286" data-name="Path 286" d="M71.767,129.537H69.706a.5.5,0,0,1,0-1h2.061a.5.5,0,0,1,0,1Z"></path></g><g id="Group_231" data-name="Group 231"><path id="Path_287" data-name="Path 287" d="M80.13,129.537H75.161a.5.5,0,0,1,0-1H80.13a.5.5,0,0,1,0,1Z"></path></g><g id="Group_232" data-name="Group 232"><path id="Path_288" data-name="Path 288" d="M74.918,132.688H73.585a.5.5,0,0,1,0-1h1.333a.5.5,0,0,1,0,1Z" fill="#374450"></path></g></g><g id="Group_234" data-name="Group 234"><path id="Path_289" data-name="Path 289" d="M179.2,287.2h0Z" fill="#fff"></path><path id="Path_290" data-name="Path 290" d="M259.061,287.7H179.2a.5.5,0,0,1,0-1h79.861a.5.5,0,0,1,0,1Z"></path></g><g id="Group_235" data-name="Group 235"><path id="Path_291" data-name="Path 291" d="M182.759,283.441l1.6,3.758Z" fill="#fff"></path><path id="Path_292" data-name="Path 292" d="M184.354,287.7a.5.5,0,0,1-.46-.3l-1.6-3.758a.5.5,0,1,1,.921-.39l1.6,3.757a.5.5,0,0,1-.461.7Z"></path></g><g id="Group_236" data-name="Group 236"><path id="Path_293" data-name="Path 293" d="M188.037,283.441l-1.074,3.758Z" fill="#fff"></path><path id="Path_294" data-name="Path 294" d="M186.963,287.7a.459.459,0,0,1-.137-.02.5.5,0,0,1-.344-.618l1.074-3.757a.5.5,0,1,1,.961.274l-1.073,3.758A.5.5,0,0,1,186.963,287.7Z"></path></g><g id="Group_237" data-name="Group 237"><path id="Path_295" data-name="Path 295" d="M226.084,113.3a.5.5,0,0,1-.5-.5v-7.065a.5.5,0,0,1,1,0V112.8A.5.5,0,0,1,226.084,113.3Z"></path></g><g id="Group_238" data-name="Group 238"><path id="Path_296" data-name="Path 296" d="M212.129,119.078a.494.494,0,0,1-.353-.146l-5-5a.5.5,0,0,1,.707-.707l5,5a.5.5,0,0,1-.354.853Z"></path></g><g id="Group_239" data-name="Group 239"><path id="Path_297" data-name="Path 297" d="M206.349,133.034h-7.065a.5.5,0,0,1,0-1h7.065a.5.5,0,0,1,0,1Z"></path></g><g id="Group_240" data-name="Group 240"><path id="Path_298" data-name="Path 298" d="M207.133,151.984a.5.5,0,0,1-.353-.853l5-5a.5.5,0,0,1,.707.707l-5,5A.5.5,0,0,1,207.133,151.984Z"></path></g><g id="Group_241" data-name="Group 241"><path id="Path_299" data-name="Path 299" d="M226.084,159.834a.5.5,0,0,1-.5-.5v-7.065a.5.5,0,0,1,1,0v7.065A.5.5,0,0,1,226.084,159.834Z" fill="#374450"></path></g><g id="Group_242" data-name="Group 242"><path id="Path_300" data-name="Path 300" d="M245.035,151.984a.5.5,0,0,1-.353-.146l-5-5a.5.5,0,0,1,.707-.707l5,5a.5.5,0,0,1-.354.853Z"></path></g><g id="Group_243" data-name="Group 243"><path id="Path_301" data-name="Path 301" d="M252.885,133.034H245.82a.5.5,0,0,1,0-1h7.065a.5.5,0,0,1,0,1Z"></path></g><g id="Group_244" data-name="Group 244"><path id="Path_302" data-name="Path 302" d="M240.039,119.078a.5.5,0,0,1-.354-.853l5-5a.5.5,0,0,1,.707.707l-5,5A.494.494,0,0,1,240.039,119.078Z"></path></g><g id="Group_245" data-name="Group 245"><rect id="Rectangle_32" data-name="Rectangle 32" width="19.917" height="24.969" transform="translate(83.84 191.334)" fill="#fff"></rect><path id="Path_303" data-name="Path 303" d="M104.257,216.8H83.34v-25.97h20.917Zm-19.917-1h18.917v-23.97H84.34Z"></path></g><g id="Group_246" data-name="Group 246"><rect id="Rectangle_33" data-name="Rectangle 33" width="15.554" height="17.319" transform="translate(86.021 193.516)" fill="#fff"></rect><path id="Path_304" data-name="Path 304" d="M102.075,211.336H85.521v-18.32h16.554Zm-15.554-1h14.554v-16.32H86.521Z"></path></g><g id="Group_247" data-name="Group 247"><rect id="Rectangle_34" data-name="Rectangle 34" width="15.554" height="4.091" transform="translate(86.021 212.29)" fill="#fff"></rect><path id="Path_305" data-name="Path 305" d="M102.075,216.881H85.521V211.79h16.554Zm-15.554-1h14.554V212.79H86.521Z"></path></g><g id="Group_250" data-name="Group 250"><g id="Group_248" data-name="Group 248"><path id="Path_306" data-name="Path 306" d="M81.94,157.947a.5.5,0,0,1-.5-.5V153.7a.5.5,0,0,1,1,0v3.75A.5.5,0,0,1,81.94,157.947Z"></path></g><g id="Group_249" data-name="Group 249"><path id="Path_307" data-name="Path 307" d="M83.815,156.072h-3.75a.5.5,0,0,1,0-1h3.75a.5.5,0,0,1,0,1Z"></path></g></g><g id="Group_253" data-name="Group 253"><g id="Group_251" data-name="Group 251"><path id="Path_308" data-name="Path 308" d="M174.058,229.13a.5.5,0,0,1-.5-.5v-3.75a.5.5,0,0,1,1,0v3.75A.5.5,0,0,1,174.058,229.13Z"></path></g><g id="Group_252" data-name="Group 252"><path id="Path_309" data-name="Path 309" d="M175.933,227.255h-3.75a.5.5,0,1,1,0-1h3.75a.5.5,0,0,1,0,1Z"></path></g></g><g id="Group_254" data-name="Group 254"><path id="Path_310" data-name="Path 310" d="M212.129,187.119a2.375,2.375,0,1,1,2.375-2.375A2.378,2.378,0,0,1,212.129,187.119Zm0-3.75a1.375,1.375,0,1,0,1.375,1.375A1.377,1.377,0,0,0,212.129,183.369Z"></path></g><g id="Group_255" data-name="Group 255"><path id="Path_311" data-name="Path 311" d="M44.505,225.638a2.375,2.375,0,1,1,2.375-2.375A2.377,2.377,0,0,1,44.505,225.638Zm0-3.75a1.375,1.375,0,1,0,1.375,1.375A1.376,1.376,0,0,0,44.505,221.888Z"></path></g><g id="Group_268" data-name="Group 268"><g id="Group_256" data-name="Group 256"><path id="Path_312" data-name="Path 312" d="M171.724,162.764a.5.5,0,0,1-.5-.5v-.75a.5.5,0,1,1,1,0v.75A.5.5,0,0,1,171.724,162.764Z"></path></g><g id="Group_257" data-name="Group 257"><path id="Path_313" data-name="Path 313" d="M170.959,162.992a.5.5,0,0,1-.433-.25l-.375-.65a.5.5,0,1,1,.866-.5l.375.65a.5.5,0,0,1-.433.75Z"></path></g><g id="Group_258" data-name="Group 258"><path id="Path_314" data-name="Path 314" d="M170.41,163.571a.494.494,0,0,1-.25-.067l-.649-.375a.5.5,0,0,1,.5-.866l.649.375a.5.5,0,0,1-.25.933Z"></path></g><g id="Group_259" data-name="Group 259"><path id="Path_315" data-name="Path 315" d="M170.224,164.347h-.75a.5.5,0,0,1,0-1h.75a.5.5,0,0,1,0,1Z"></path></g><g id="Group_260" data-name="Group 260"><path id="Path_316" data-name="Path 316" d="M169.8,165.488a.5.5,0,0,1-.251-.933l.65-.375a.5.5,0,0,1,.5.866l-.65.375A.5.5,0,0,1,169.8,165.488Z"></path></g><g id="Group_261" data-name="Group 261"><path id="Path_317" data-name="Path 317" d="M170.656,166.311a.494.494,0,0,1-.25-.067.5.5,0,0,1-.183-.683l.375-.649a.5.5,0,1,1,.866.5l-.375.649A.5.5,0,0,1,170.656,166.311Z"></path></g><g id="Group_262" data-name="Group 262"><path id="Path_318" data-name="Path 318" d="M171.808,166.6a.5.5,0,0,1-.5-.5v-.75a.5.5,0,0,1,1,0v.75A.5.5,0,0,1,171.808,166.6Z"></path></g><g id="Group_263" data-name="Group 263"><path id="Path_319" data-name="Path 319" d="M172.948,166.269a.5.5,0,0,1-.433-.25l-.375-.649a.5.5,0,0,1,.866-.5l.375.649a.5.5,0,0,1-.433.75Z"></path></g><g id="Group_264" data-name="Group 264"><path id="Path_320" data-name="Path 320" d="M173.771,165.415a.5.5,0,0,1-.25-.066l-.649-.375a.5.5,0,0,1,.5-.867l.649.375a.5.5,0,0,1-.25.933Z"></path></g><g id="Group_265" data-name="Group 265"><path id="Path_321" data-name="Path 321" d="M174.058,164.264h-.75a.5.5,0,0,1,0-1h.75a.5.5,0,0,1,0,1Z"></path></g><g id="Group_266" data-name="Group 266"><path id="Path_322" data-name="Path 322" d="M173.081,163.5a.5.5,0,0,1-.251-.933l.65-.375a.5.5,0,0,1,.5.866l-.65.375A.5.5,0,0,1,173.081,163.5Z"></path></g><g id="Group_267" data-name="Group 267"><path id="Path_323" data-name="Path 323" d="M172.5,162.95a.488.488,0,0,1-.249-.067.5.5,0,0,1-.183-.683l.375-.65a.5.5,0,0,1,.866.5l-.375.65A.5.5,0,0,1,172.5,162.95Z"></path></g></g></g></g></g></g></svg>