<svg xmlns="http://www.w3.org/2000/svg" width="208.9" height="215.46" viewBox="0 0 208.9 215.46"><g id="Group_276" data-name="Group 276" transform="translate(-600.502 -109.086)"><g id="Group_273" data-name="Group 273"><circle id="Ellipse_3" data-name="Ellipse 3" cx="99.096" cy="99.096" r="99.096" transform="translate(607.418 119.558) rotate(2)" fill="#f4f4f4"></circle><g id="_3" data-name="3"><g id="Group_80" data-name="Group 80"><path id="Path_15" data-name="Path 15" d="M758.291,287.193,729.549,235a3.856,3.856,0,0,0-6.754,0l-28.743,52.194Z" fill="#fff"></path><path id="Path_16" data-name="Path 16" d="M753.083,287.325l-26.3-47.759v47.759Z" fill="#f5f9ff"></path><g id="Group_2" data-name="Group 2"><path id="Path_17" data-name="Path 17" d="M758.291,287.693a.5.5,0,0,1-.437-.259l-28.742-52.193a3.355,3.355,0,0,0-5.878,0l-22.315,40.518a.5.5,0,1,1-.875-.482l22.314-40.519a4.3,4.3,0,0,1,3.813-2.254h0a4.3,4.3,0,0,1,3.815,2.254l28.742,52.194a.5.5,0,0,1-.2.678A.488.488,0,0,1,758.291,287.693Z" fill="#c9ced7"></path></g><g id="Group_3" data-name="Group 3"><path id="Path_18" data-name="Path 18" d="M732.617,250.663a.5.5,0,0,1-.438-.259l-5.835-10.6a.5.5,0,0,1,.877-.482l5.835,10.6a.5.5,0,0,1-.2.679A.505.505,0,0,1,732.617,250.663Z" fill="#c9ced7"></path></g><path id="Path_19" data-name="Path 19" d="M706.848,287.193,666.239,213.45a5,5,0,0,0-8.759,0l-40.61,73.743Z" fill="#fff"></path><path id="Path_20" data-name="Path 20" d="M622.947,283.871l-1.832,3.327h1.832Z" fill="#fff"></path><path id="Path_21" data-name="Path 21" d="M700.072,287.325l-37.421-67.952v67.952Z" fill="#f5f9ff"></path><g id="Group_4" data-name="Group 4"><path id="Path_22" data-name="Path 22" d="M616.87,287.693a.488.488,0,0,1-.241-.063.5.5,0,0,1-.2-.678l40.609-73.743a5.5,5.5,0,0,1,9.635,0l38.561,70.024a.5.5,0,1,1-.875.483L665.8,213.691a4.5,4.5,0,0,0-7.885,0l-40.609,73.743A.5.5,0,0,1,616.87,287.693Z" fill="#c9ced7"></path></g><g id="Group_5" data-name="Group 5"><path id="Path_23" data-name="Path 23" d="M670.22,233.616a.5.5,0,0,1-.438-.259l-7.569-13.744a.5.5,0,1,1,.875-.482l7.569,13.744a.5.5,0,0,1-.437.741Z" fill="#c9ced7"></path></g><g id="Group_6" data-name="Group 6"><path id="Path_24" data-name="Path 24" d="M671.828,236.538a.5.5,0,0,1-.437-.259l-.621-1.128a.5.5,0,1,1,.875-.482l.621,1.127a.5.5,0,0,1-.2.679A.505.505,0,0,1,671.828,236.538Z" fill="#c9ced7"></path></g><g id="Group_7" data-name="Group 7"><path id="Path_25" data-name="Path 25" d="M798.913,287.7H608.247a.5.5,0,0,1,0-1H798.913a.5.5,0,0,1,0,1Z"></path></g><g id="Group_16" data-name="Group 16"><g id="Group_8" data-name="Group 8"><rect id="Rectangle_7" data-name="Rectangle 7" width="3.15" height="102.621" transform="translate(724.632 182.065)" fill="#fff"></rect><path id="Path_26" data-name="Path 26" d="M728.281,285.186h-4.149V181.565h4.149Zm-3.149-1h2.149V182.565h-2.149Z"></path></g><g id="Group_9" data-name="Group 9"><path id="Path_27" data-name="Path 27" d="M732.887,181.766a2.832,2.832,0,0,0-1.933-2.835v0l-.018,0-.008,0-8.061-2.059v9.805l8.061-2.059.008,0,.018,0v0A2.833,2.833,0,0,0,732.887,181.766Z" fill="#fff"></path><path id="Path_28" data-name="Path 28" d="M722.366,187.312V176.221l9.064,2.342a3.381,3.381,0,0,1,1.957,3.2,3.323,3.323,0,0,1-2.224,3.3l-.105.031Zm1-9.8v8.517l7.438-1.9a2.551,2.551,0,0,0,.026-4.71Z"></path></g><g id="Group_10" data-name="Group 10"><path id="Path_29" data-name="Path 29" d="M722.683,177.053V120.11h-1.118l-3.177,45.178a31.99,31.99,0,0,1,2.8,11.765Z" fill="#fff"></path><path id="Path_30" data-name="Path 30" d="M723.183,177.553h-2.492l-.005-.5a31.688,31.688,0,0,0-2.749-11.554l-.057-.119.009-.132,3.21-45.642h2.084Zm-1.508-1h.508V120.61h-.153L718.9,165.194A32.46,32.46,0,0,1,721.675,176.553Z"></path></g><g id="Group_11" data-name="Group 11"><path id="Path_31" data-name="Path 31" d="M719.135,182.649,677.526,211.12l.559,1.147,34.6-19.328s2.829-5.684,7.2-8.754Z" fill="#fff"></path><path id="Path_32" data-name="Path 32" d="M677.867,212.961l-.979-2.01,42.443-29.042,1.188,2.44-.349.245c-4.217,2.962-7.01,8.512-7.038,8.568l-.068.138Zm.3-1.672.138.284,34.006-19a27.318,27.318,0,0,1,6.94-8.551l-.31-.638Z"></path></g><g id="Group_12" data-name="Group 12"><path id="Path_33" data-name="Path 33" d="M725,183.492l41.608,28.471.559-1.147-31.423-25.849a20.714,20.714,0,0,1-10-3.011Z" fill="#fff"></path><path id="Path_34" data-name="Path 34" d="M766.8,212.7l-42.444-29.042,1.188-2.439.477.317a20.318,20.318,0,0,0,9.723,2.928l.176,0,31.864,26.211Zm-41.167-29.38,40.774,27.9.133-.272-30.986-25.49a21.231,21.231,0,0,1-9.607-2.783Z"></path></g><g id="Group_13" data-name="Group 13"><path id="Path_35" data-name="Path 35" d="M726.207,181.766c0,2.77-1.895,5.015-4.231,5.015s-4.232-2.245-4.232-5.015,1.895-5.014,4.232-5.014S726.207,179,726.207,181.766Z" fill="#fff"></path><path id="Path_36" data-name="Path 36" d="M721.976,187.281c-2.61,0-4.732-2.474-4.732-5.515s2.122-5.514,4.732-5.514,4.73,2.473,4.73,5.514S724.584,187.281,721.976,187.281Zm0-10.029c-2.058,0-3.732,2.025-3.732,4.514s1.674,4.515,3.732,4.515,3.73-2.025,3.73-4.515S724.032,177.252,721.976,177.252Z"></path></g><path id="Path_37" data-name="Path 37" d="M724.488,181.766a2.549,2.549,0,1,1-2.512-2.977A2.775,2.775,0,0,1,724.488,181.766Z"></path><rect id="Rectangle_8" data-name="Rectangle 8" width="2.512" height="5.955" transform="translate(719.463 178.789)" fill="#374450"></rect><g id="Group_14" data-name="Group 14"><path id="Path_38" data-name="Path 38" d="M721.976,181.766a2.549,2.549,0,1,1-2.513-2.977A2.775,2.775,0,0,1,721.976,181.766Z" fill="#fff"></path><path id="Path_39" data-name="Path 39" d="M719.463,185.244a3.513,3.513,0,1,1,3.013-3.478A3.274,3.274,0,0,1,719.463,185.244Zm0-5.955a2.531,2.531,0,1,0,2.013,2.477A2.284,2.284,0,0,0,719.463,179.289Z" fill="#374450"></path></g><path id="Path_40" data-name="Path 40" d="M721.061,181.766a1.621,1.621,0,1,1-1.6-1.893A1.764,1.764,0,0,1,721.061,181.766Z" fill="#374450"></path><g id="Group_15" data-name="Group 15"><path id="Path_41" data-name="Path 41" d="M730.349,287.193h-8.373V263.93a4.145,4.145,0,0,1,4.145-4.145h.083a4.145,4.145,0,0,1,4.145,4.145Z" fill="#fff"></path><path id="Path_42" data-name="Path 42" d="M730.849,287.693h-9.373V263.931a4.687,4.687,0,0,1,9.373,0Zm-8.373-1h7.373V263.931a3.687,3.687,0,0,0-7.373,0Z"></path></g></g><g id="Group_17" data-name="Group 17"><path id="Path_43" data-name="Path 43" d="M724.632,267.2a.5.5,0,0,1-.5-.5v-1.734a.5.5,0,0,1,1,0V266.7A.5.5,0,0,1,724.632,267.2Z"></path></g><g id="Group_18" data-name="Group 18"><path id="Path_44" data-name="Path 44" d="M724.632,279.908a.5.5,0,0,1-.5-.5V271.16a.5.5,0,0,1,1,0v8.248A.5.5,0,0,1,724.632,279.908Z"></path></g><g id="Group_21" data-name="Group 21"><g id="Group_19" data-name="Group 19"><path id="Path_45" data-name="Path 45" d="M636.448,207.187a.5.5,0,0,1-.5-.5v-3.75a.5.5,0,0,1,1,0v3.75A.5.5,0,0,1,636.448,207.187Z"></path></g><g id="Group_20" data-name="Group 20"><path id="Path_46" data-name="Path 46" d="M638.323,205.312h-3.75a.5.5,0,0,1,0-1h3.75a.5.5,0,0,1,0,1Z"></path></g></g><g id="Group_24" data-name="Group 24"><g id="Group_22" data-name="Group 22"><path id="Path_47" data-name="Path 47" d="M747.526,175.181a.5.5,0,0,1-.5-.5v-3.75a.5.5,0,1,1,1,0v3.75A.5.5,0,0,1,747.526,175.181Z"></path></g><g id="Group_23" data-name="Group 23"><path id="Path_48" data-name="Path 48" d="M749.4,173.306h-3.75a.5.5,0,0,1,0-1h3.75a.5.5,0,0,1,0,1Z"></path></g></g><g id="Group_25" data-name="Group 25"><path id="Path_49" data-name="Path 49" d="M743.908,217.934a2.375,2.375,0,1,1,2.375-2.375A2.378,2.378,0,0,1,743.908,217.934Zm0-3.75a1.375,1.375,0,1,0,1.375,1.375A1.377,1.377,0,0,0,743.908,214.184Z"></path></g><g id="Group_26" data-name="Group 26"><path id="Path_50" data-name="Path 50" d="M691.3,179.239a2.375,2.375,0,1,1,2.375-2.375A2.377,2.377,0,0,1,691.3,179.239Zm0-3.75a1.375,1.375,0,1,0,1.375,1.375A1.377,1.377,0,0,0,691.3,175.489Z"></path></g><g id="Group_39" data-name="Group 39"><g id="Group_27" data-name="Group 27"><path id="Path_51" data-name="Path 51" d="M702.732,240.815a.5.5,0,0,1-.5-.5v-.75a.5.5,0,1,1,1,0v.75A.5.5,0,0,1,702.732,240.815Z" fill="#374450"></path></g><g id="Group_28" data-name="Group 28"><path id="Path_52" data-name="Path 52" d="M701.966,241.043a.5.5,0,0,1-.433-.25l-.375-.65a.5.5,0,1,1,.866-.5l.375.65a.5.5,0,0,1-.433.75Z" fill="#374450"></path></g><g id="Group_29" data-name="Group 29"><path id="Path_53" data-name="Path 53" d="M701.417,241.622a.5.5,0,0,1-.25-.066l-.649-.375a.5.5,0,0,1,.5-.867l.649.375a.5.5,0,0,1-.25.933Z" fill="#374450"></path></g><g id="Group_30" data-name="Group 30"><path id="Path_54" data-name="Path 54" d="M701.232,242.4h-.75a.5.5,0,0,1,0-1h.75a.5.5,0,0,1,0,1Z" fill="#374450"></path></g><g id="Group_31" data-name="Group 31"><path id="Path_55" data-name="Path 55" d="M700.81,243.539a.5.5,0,0,1-.25-.933l.649-.375a.5.5,0,1,1,.5.866l-.649.375A.5.5,0,0,1,700.81,243.539Z" fill="#374450"></path></g><g id="Group_32" data-name="Group 32"><path id="Path_56" data-name="Path 56" d="M701.663,244.363a.5.5,0,0,1-.25-.067.5.5,0,0,1-.182-.683l.375-.65a.5.5,0,1,1,.865.5l-.375.65A.5.5,0,0,1,701.663,244.363Z" fill="#374450"></path></g><g id="Group_33" data-name="Group 33"><path id="Path_57" data-name="Path 57" d="M702.815,244.649a.5.5,0,0,1-.5-.5v-.75a.5.5,0,0,1,1,0v.75A.5.5,0,0,1,702.815,244.649Z" fill="#374450"></path></g><g id="Group_34" data-name="Group 34"><path id="Path_58" data-name="Path 58" d="M703.955,244.321a.5.5,0,0,1-.432-.25l-.375-.65a.5.5,0,1,1,.865-.5l.375.65a.5.5,0,0,1-.183.683A.5.5,0,0,1,703.955,244.321Z" fill="#374450"></path></g><g id="Group_35" data-name="Group 35"><path id="Path_59" data-name="Path 59" d="M704.779,243.467a.5.5,0,0,1-.25-.067l-.65-.375a.5.5,0,1,1,.5-.866l.65.375a.5.5,0,0,1-.25.933Z" fill="#374450"></path></g><g id="Group_36" data-name="Group 36"><path id="Path_60" data-name="Path 60" d="M705.065,242.315h-.75a.5.5,0,0,1,0-1h.75a.5.5,0,0,1,0,1Z" fill="#374450"></path></g><g id="Group_37" data-name="Group 37"><path id="Path_61" data-name="Path 61" d="M704.087,241.55a.5.5,0,0,1-.25-.933l.651-.375a.5.5,0,0,1,.5.866l-.651.375A.494.494,0,0,1,704.087,241.55Z" fill="#374450"></path></g><g id="Group_38" data-name="Group 38"><path id="Path_62" data-name="Path 62" d="M703.508,241a.5.5,0,0,1-.433-.75l.375-.65a.5.5,0,1,1,.866.5l-.375.65A.5.5,0,0,1,703.508,241Z" fill="#374450"></path></g></g><circle id="Ellipse_4" data-name="Ellipse 4" cx="15.959" cy="15.959" r="15.959" transform="translate(647.41 116.229)" fill="#ffb800"></circle><path id="Path_63" data-name="Path 63" d="M648.41,133.189a15.94,15.94,0,0,1,26.72-11.762,15.942,15.942,0,1,0-22.522,22.522A15.88,15.88,0,0,1,648.41,133.189Z" fill="#fff"></path><g id="Group_40" data-name="Group 40"><path id="Path_64" data-name="Path 64" d="M663.368,148.648a16.459,16.459,0,1,1,16.46-16.46A16.479,16.479,0,0,1,663.368,148.648Zm0-31.919a15.459,15.459,0,1,0,15.46,15.459A15.477,15.477,0,0,0,663.368,116.729Z"></path></g><g id="Group_46" data-name="Group 46"><g id="Group_41" data-name="Group 41"><path id="Path_65" data-name="Path 65" d="M663.793,163.063a.5.5,0,0,1-.5-.5v-1a.5.5,0,1,1,1,0v1A.5.5,0,0,1,663.793,163.063Z"></path></g><g id="Group_42" data-name="Group 42"><path id="Path_66" data-name="Path 66" d="M663.793,263.3a.5.5,0,0,1-.5-.5v-2a.5.5,0,0,1,1,0v2A.5.5,0,0,1,663.793,263.3Zm0-4.009a.5.5,0,0,1-.5-.5v-2a.5.5,0,0,1,1,0v2A.5.5,0,0,1,663.793,259.291Zm0-4.01a.5.5,0,0,1-.5-.5v-2.005a.5.5,0,0,1,1,0v2.005A.5.5,0,0,1,663.793,255.281Zm0-4.009a.5.5,0,0,1-.5-.5v-2.005a.5.5,0,0,1,1,0v2.005A.5.5,0,0,1,663.793,251.272Zm0-4.01a.5.5,0,0,1-.5-.5v-2a.5.5,0,1,1,1,0v2A.5.5,0,0,1,663.793,247.262Zm0-4.009a.5.5,0,0,1-.5-.5v-2.005a.5.5,0,0,1,1,0v2.005A.5.5,0,0,1,663.793,243.253Zm0-4.01a.5.5,0,0,1-.5-.5v-2a.5.5,0,0,1,1,0v2A.5.5,0,0,1,663.793,239.243Zm0-4.009a.5.5,0,0,1-.5-.5v-2a.5.5,0,0,1,1,0v2A.5.5,0,0,1,663.793,235.234Zm0-4.009a.5.5,0,0,1-.5-.5V228.72a.5.5,0,0,1,1,0v2.005A.5.5,0,0,1,663.793,231.225Zm0-4.01a.5.5,0,0,1-.5-.5v-2a.5.5,0,0,1,1,0v2A.5.5,0,0,1,663.793,227.215Zm0-4.009a.5.5,0,0,1-.5-.5v-2a.5.5,0,0,1,1,0v2A.5.5,0,0,1,663.793,223.206Zm0-4.01a.5.5,0,0,1-.5-.5v-2.005a.5.5,0,0,1,1,0V218.7A.5.5,0,0,1,663.793,219.2Zm0-4.01a.5.5,0,0,1-.5-.5v-2a.5.5,0,0,1,1,0v2A.5.5,0,0,1,663.793,215.186Zm0-4.009a.5.5,0,0,1-.5-.5v-2.005a.5.5,0,0,1,1,0v2.005A.5.5,0,0,1,663.793,211.177Zm0-4.009a.5.5,0,0,1-.5-.5v-2.005a.5.5,0,0,1,1,0v2.005A.5.5,0,0,1,663.793,207.168Zm0-4.01a.5.5,0,0,1-.5-.5v-2.005a.5.5,0,0,1,1,0v2.005A.5.5,0,0,1,663.793,203.158Zm0-4.009a.5.5,0,0,1-.5-.5v-2.005a.5.5,0,0,1,1,0v2.005A.5.5,0,0,1,663.793,199.149Zm0-4.01a.5.5,0,0,1-.5-.5v-2a.5.5,0,0,1,1,0v2A.5.5,0,0,1,663.793,195.139Zm0-4.009a.5.5,0,0,1-.5-.5v-2.005a.5.5,0,0,1,1,0v2.005A.5.5,0,0,1,663.793,191.13Zm0-4.009a.5.5,0,0,1-.5-.5v-2.005a.5.5,0,0,1,1,0v2.005A.5.5,0,0,1,663.793,187.121Zm0-4.01a.5.5,0,0,1-.5-.5v-2a.5.5,0,0,1,1,0v2A.5.5,0,0,1,663.793,183.111Zm0-4.01a.5.5,0,0,1-.5-.5v-2a.5.5,0,0,1,1,0v2A.5.5,0,0,1,663.793,179.1Zm0-4.009a.5.5,0,0,1-.5-.5v-2a.5.5,0,1,1,1,0v2A.5.5,0,0,1,663.793,175.092Zm0-4.01a.5.5,0,0,1-.5-.5v-2a.5.5,0,0,1,1,0v2A.5.5,0,0,1,663.793,171.082Zm0-4.009a.5.5,0,0,1-.5-.5v-2.005a.5.5,0,0,1,1,0v2.005A.5.5,0,0,1,663.793,167.073Z"></path></g><g id="Group_43" data-name="Group 43"><path id="Path_67" data-name="Path 67" d="M664.793,266.3h-1.5v-1.5a.5.5,0,1,1,1,0v.5h.5a.5.5,0,0,1,0,1Z"></path></g><g id="Group_44" data-name="Group 44"><path id="Path_68" data-name="Path 68" d="M721.294,266.3h-2.017a.5.5,0,0,1,0-1h2.017a.5.5,0,0,1,0,1Zm-4.036,0H715.24a.5.5,0,0,1,0-1h2.018a.5.5,0,0,1,0,1Zm-4.035,0H711.2a.5.5,0,0,1,0-1h2.019a.5.5,0,0,1,0,1Zm-4.036,0h-2.018a.5.5,0,0,1,0-1h2.018a.5.5,0,0,1,0,1Zm-4.035,0h-2.019a.5.5,0,0,1,0-1h2.019a.5.5,0,0,1,0,1Zm-4.037,0H699.1a.5.5,0,0,1,0-1h2.017a.5.5,0,0,1,0,1Zm-4.036,0h-2.017a.5.5,0,0,1,0-1h2.017a.5.5,0,0,1,0,1Zm-4.035,0h-2.017a.5.5,0,0,1,0-1h2.017a.5.5,0,0,1,0,1Zm-4.036,0H686.99a.5.5,0,0,1,0-1h2.018a.5.5,0,0,1,0,1Zm-4.035,0h-2.019a.5.5,0,0,1,0-1h2.019a.5.5,0,0,1,0,1Zm-4.036,0h-2.018a.5.5,0,0,1,0-1h2.018a.5.5,0,0,1,0,1Zm-4.036,0h-2.018a.5.5,0,0,1,0-1H676.9a.5.5,0,0,1,0,1Zm-4.036,0h-2.017a.5.5,0,0,1,0-1h2.017a.5.5,0,0,1,0,1Zm-4.036,0h-2.017a.5.5,0,0,1,0-1h2.017a.5.5,0,0,1,0,1Z"></path></g><g id="Group_45" data-name="Group 45"><path id="Path_69" data-name="Path 69" d="M724.312,266.3h-1a.5.5,0,0,1,0-1h1a.5.5,0,0,1,0,1Z"></path></g></g><g id="Group_53" data-name="Group 53"><path id="Path_70" data-name="Path 70" d="M754.331,274.1a3.958,3.958,0,0,1-3.849,4.882h-5.913a3.957,3.957,0,0,1-3.848-4.882l6.288-26.173a.531.531,0,0,1,1.033,0Z" fill="#ed1d24"></path><path id="Path_71" data-name="Path 71" d="M747.009,250.743a.531.531,0,0,1,1.033,0l6.16,25.636a3.936,3.936,0,0,0,.129-2.276l-6.289-26.173a.531.531,0,0,0-1.033,0L740.721,274.1a3.92,3.92,0,0,0,.129,2.276Z" fill="#fff"></path><g id="Group_47" data-name="Group 47"><path id="Path_72" data-name="Path 72" d="M750.483,279.485H744.57a4.458,4.458,0,0,1-4.335-5.5l6.288-26.173a1.031,1.031,0,0,1,2.006,0l6.288,26.173a4.457,4.457,0,0,1-4.334,5.5Zm-2.927-31.439-6.349,26.174a3.458,3.458,0,0,0,3.363,4.265h5.913a3.457,3.457,0,0,0,3.361-4.265Z" fill="#374450"></path></g><g id="Group_48" data-name="Group 48"><path id="Path_73" data-name="Path 73" d="M747.526,287.61a.5.5,0,0,1-.5-.5V261.675a.5.5,0,1,1,1,0V287.11A.5.5,0,0,1,747.526,287.61Z"></path></g><g id="Group_49" data-name="Group 49"><path id="Path_74" data-name="Path 74" d="M747.526,270.493a.5.5,0,0,1-.354-.147l-1.854-1.854a.5.5,0,1,1,.707-.707l1.854,1.854a.5.5,0,0,1-.353.854Z"></path></g><g id="Group_50" data-name="Group 50"><path id="Path_75" data-name="Path 75" d="M747.526,265.97a.5.5,0,0,1-.354-.853l1.837-1.837a.5.5,0,1,1,.707.707l-1.837,1.837A.5.5,0,0,1,747.526,265.97Z"></path></g><g id="Group_51" data-name="Group 51"><path id="Path_76" data-name="Path 76" d="M747.526,275.548a.5.5,0,0,1-.354-.853l3.313-3.313a.5.5,0,0,1,.707.707l-3.313,3.313A.5.5,0,0,1,747.526,275.548Z"></path></g><g id="Group_52" data-name="Group 52"><path id="Path_77" data-name="Path 77" d="M749.846,273.227a.5.5,0,0,1-.354-.146l-.991-.992a.5.5,0,0,1,.707-.707l.991.992a.5.5,0,0,1-.353.853Z"></path></g></g><g id="Group_60" data-name="Group 60"><path id="Path_78" data-name="Path 78" d="M782.282,267.758a5.916,5.916,0,0,1-5.752,7.3h-8.838a5.915,5.915,0,0,1-5.751-7.3l9.4-39.119a.794.794,0,0,1,1.544,0Z" fill="#ed1d24"></path><path id="Path_79" data-name="Path 79" d="M771.339,232.844a.794.794,0,0,1,1.544,0l9.206,38.317a5.87,5.87,0,0,0,.193-3.4l-9.4-39.119a.794.794,0,0,0-1.544,0l-9.4,39.119a5.862,5.862,0,0,0,.193,3.4Z" fill="#fff"></path><g id="Group_54" data-name="Group 54"><path id="Path_80" data-name="Path 80" d="M776.53,275.556h-8.837a6.417,6.417,0,0,1-6.239-7.914l9.4-39.12a1.294,1.294,0,0,1,2.516,0l9.4,39.119a6.416,6.416,0,0,1-6.239,7.914Zm-4.418-47.026a.28.28,0,0,0-.287.226l-9.4,39.119a5.416,5.416,0,0,0,5.266,6.681h8.837a5.416,5.416,0,0,0,5.266-6.681l-9.4-39.119A.278.278,0,0,0,772.112,228.53Z" fill="#374450"></path></g><g id="Group_55" data-name="Group 55"><path id="Path_81" data-name="Path 81" d="M772.112,287.7a.5.5,0,0,1-.5-.5V249.183a.5.5,0,1,1,1,0V287.2A.5.5,0,0,1,772.112,287.7Z"></path></g><g id="Group_56" data-name="Group 56"><path id="Path_82" data-name="Path 82" d="M772.112,262.115a.5.5,0,0,1-.354-.146l-2.772-2.772a.5.5,0,0,1,.707-.707l2.772,2.772a.5.5,0,0,1-.353.853Z"></path></g><g id="Group_57" data-name="Group 57"><path id="Path_83" data-name="Path 83" d="M772.112,255.356a.5.5,0,0,1-.354-.854l2.745-2.745a.5.5,0,1,1,.707.707l-2.745,2.745A.5.5,0,0,1,772.112,255.356Z"></path></g><g id="Group_58" data-name="Group 58"><path id="Path_84" data-name="Path 84" d="M772.112,269.671a.5.5,0,0,1-.354-.853l4.95-4.95a.5.5,0,1,1,.707.707l-4.95,4.95A.5.5,0,0,1,772.112,269.671Z"></path></g><g id="Group_59" data-name="Group 59"><path id="Path_85" data-name="Path 85" d="M775.579,266.2a.5.5,0,0,1-.353-.147l-1.482-1.481a.5.5,0,1,1,.707-.707l1.482,1.482a.5.5,0,0,1-.354.853Z"></path></g></g><g id="Group_61" data-name="Group 61"><path id="Path_86" data-name="Path 86" d="M662.8,155.27h-.022c-.686-.029-1.38-.09-2.063-.18a.5.5,0,1,1,.131-.992c.653.087,1.318.145,1.975.173a.5.5,0,0,1-.021,1Zm2.027,0a.5.5,0,0,1-.022-1c.658-.029,1.322-.089,1.973-.177a.5.5,0,0,1,.135.991c-.681.092-1.376.154-2.063.185Zm-6.04-.532a.522.522,0,0,1-.11-.012c-.67-.151-1.343-.336-2-.548a.5.5,0,0,1,.306-.951c.628.2,1.272.378,1.913.523a.5.5,0,0,1-.111.988Zm10.053-.011a.5.5,0,0,1-.111-.987c.638-.146,1.281-.324,1.911-.528a.5.5,0,1,1,.308.951c-.657.214-1.329.4-2,.552A.472.472,0,0,1,668.844,154.725Zm-13.908-1.235a.51.51,0,0,1-.2-.04c-.631-.269-1.26-.572-1.868-.9a.5.5,0,0,1,.475-.881c.58.312,1.182.6,1.786.859a.5.5,0,0,1-.2.96Zm17.759-.019a.5.5,0,0,1-.2-.959c.6-.259,1.2-.549,1.784-.863a.5.5,0,0,1,.475.88c-.6.328-1.233.631-1.864.9A.51.51,0,0,1,672.7,153.471Zm-21.328-1.9a.5.5,0,0,1-.275-.083c-.577-.38-1.142-.79-1.677-1.218a.5.5,0,0,1,.623-.781c.513.409,1.052.8,1.6,1.164a.5.5,0,0,1-.276.918Zm24.891-.026a.5.5,0,0,1-.276-.916c.55-.366,1.089-.759,1.6-1.168a.5.5,0,0,1,.625.781c-.535.428-1.1.838-1.674,1.22A.5.5,0,0,1,676.258,151.547Zm-28.06-2.5a.5.5,0,0,1-.344-.138c-.5-.476-.984-.98-1.435-1.495a.5.5,0,1,1,.752-.659c.432.493.894.974,1.372,1.43a.5.5,0,0,1-.345.862Zm31.223-.031a.5.5,0,0,1-.346-.861c.477-.457.938-.94,1.371-1.434a.5.5,0,1,1,.751.658c-.451.516-.932,1.02-1.43,1.5A.5.5,0,0,1,679.421,149.018ZM645.528,146a.5.5,0,0,1-.4-.205c-.406-.555-.792-1.135-1.146-1.726a.5.5,0,1,1,.857-.515c.339.565.708,1.121,1.1,1.651a.5.5,0,0,1-.109.7A.494.494,0,0,1,645.528,146Zm36.558-.036a.5.5,0,0,1-.4-.794c.387-.534.755-1.09,1.093-1.655a.5.5,0,1,1,.857.514c-.352.589-.736,1.171-1.142,1.729A.5.5,0,0,1,682.086,145.968Zm-38.644-3.434a.5.5,0,0,1-.451-.282c-.3-.624-.578-1.265-.817-1.9a.5.5,0,1,1,.936-.351c.229.611.492,1.223.782,1.819a.5.5,0,0,1-.45.719Zm40.724-.043a.5.5,0,0,1-.451-.717c.288-.6.551-1.214.779-1.823a.5.5,0,1,1,.936.351c-.238.637-.512,1.278-.813,1.9A.5.5,0,0,1,684.166,142.491Zm-42.155-3.746a.5.5,0,0,1-.481-.366c-.183-.657-.339-1.337-.465-2.019a.5.5,0,0,1,.984-.181c.12.653.27,1.3.443,1.932a.5.5,0,0,1-.347.616A.521.521,0,0,1,642.011,138.745Zm43.577-.046a.507.507,0,0,1-.133-.018.5.5,0,0,1-.349-.615c.175-.637.323-1.287.439-1.932a.5.5,0,0,1,.985.176c-.122.676-.276,1.356-.459,2.021A.5.5,0,0,1,685.588,138.7Zm-44.3-3.938a.5.5,0,0,1-.5-.455c-.061-.678-.093-1.374-.1-2.068a.5.5,0,0,1,.5-.5h0a.5.5,0,0,1,.5.5c0,.665.033,1.332.091,1.981a.5.5,0,0,1-.453.543A.338.338,0,0,1,641.283,134.761Zm45.024-.048a.355.355,0,0,1-.046,0,.5.5,0,0,1-.453-.542c.058-.653.088-1.319.088-1.981a.542.542,0,0,1,.5-.547.461.461,0,0,1,.5.452h-.5l.5.08c0,.706-.032,1.4-.092,2.085A.5.5,0,0,1,686.307,134.713Zm-45.029-4a.317.317,0,0,1-.044,0,.5.5,0,0,1-.455-.541c.059-.688.15-1.379.271-2.054a.5.5,0,0,1,.984.176c-.115.645-.2,1.306-.259,1.964A.5.5,0,0,1,641.278,130.711Zm45.019-.142a.5.5,0,0,1-.5-.454c-.062-.661-.153-1.321-.271-1.963a.5.5,0,1,1,.982-.182c.125.671.221,1.361.285,2.052a.5.5,0,0,1-.451.545Zm-44.311-3.844a.466.466,0,0,1-.132-.018.5.5,0,0,1-.351-.613c.18-.659.394-1.323.635-1.972a.5.5,0,1,1,.937.348c-.231.622-.435,1.256-.607,1.886A.5.5,0,0,1,641.986,126.725Zm43.577-.138a.5.5,0,0,1-.482-.366c-.176-.631-.385-1.265-.62-1.882a.5.5,0,0,1,.936-.356c.245.646.464,1.309.647,1.97a.5.5,0,0,1-.347.615A.477.477,0,0,1,685.563,126.587ZM643.4,122.929a.5.5,0,0,1-.452-.716c.3-.625.63-1.24.98-1.827a.5.5,0,0,1,.859.513c-.335.56-.65,1.148-.936,1.746A.5.5,0,0,1,643.4,122.929Zm40.723-.128a.5.5,0,0,1-.449-.281c-.289-.592-.607-1.177-.947-1.741a.5.5,0,1,1,.855-.516c.356.588.69,1.2.99,1.819a.5.5,0,0,1-.449.719Zm-38.651-3.353a.5.5,0,0,1-.405-.793c.4-.557.837-1.1,1.289-1.622a.5.5,0,0,1,.754.656c-.433.5-.847,1.019-1.233,1.552A.5.5,0,0,1,645.473,119.448Zm36.557-.114a.5.5,0,0,1-.4-.2c-.387-.529-.8-1.049-1.241-1.545a.5.5,0,1,1,.75-.661c.457.519.894,1.062,1.3,1.615a.5.5,0,0,1-.109.7A.494.494,0,0,1,682.03,119.334Zm-33.9-2.942a.5.5,0,0,1-.347-.86c.5-.477,1.02-.937,1.555-1.368a.5.5,0,0,1,.627.78c-.513.412-1.014.852-1.488,1.309A.5.5,0,0,1,648.131,116.392Zm31.223-.1a.5.5,0,0,1-.344-.137c-.479-.454-.982-.891-1.5-1.3a.5.5,0,0,1,.621-.783c.539.427,1.065.884,1.564,1.357a.5.5,0,0,1-.343.863Zm-28.065-2.438a.5.5,0,0,1-.277-.917c.572-.38,1.169-.74,1.774-1.068a.5.5,0,1,1,.477.878c-.578.315-1.15.659-1.7,1.023A.5.5,0,0,1,651.289,113.857Zm24.89-.078a.5.5,0,0,1-.274-.082c-.55-.361-1.124-.7-1.705-1.012a.5.5,0,1,1,.471-.882c.609.324,1.208.68,1.782,1.058a.5.5,0,0,1-.274.918Zm-21.33-1.854a.5.5,0,0,1-.2-.959c.632-.273,1.284-.52,1.937-.734a.5.5,0,0,1,.313.95c-.625.205-1.249.441-1.854.7A.5.5,0,0,1,654.849,111.925Zm17.759-.057a.5.5,0,0,1-.195-.039c-.609-.258-1.235-.49-1.859-.69a.5.5,0,1,1,.3-.953c.653.21,1.307.453,1.943.722a.5.5,0,0,1-.194.96Zm-13.912-1.2a.5.5,0,0,1-.112-.987c.672-.155,1.358-.281,2.038-.374a.5.5,0,1,1,.135.991c-.65.089-1.306.209-1.948.357A.485.485,0,0,1,658.7,110.663Zm10.054-.032a.513.513,0,0,1-.109-.012c-.642-.144-1.3-.259-1.951-.345a.5.5,0,0,1-.432-.561.508.508,0,0,1,.561-.43c.683.089,1.37.21,2.041.36a.5.5,0,0,1-.11.988Zm-6.042-.519a.5.5,0,0,1-.023-1c.686-.033,1.382-.035,2.071-.006a.5.5,0,0,1,.479.52.484.484,0,0,1-.522.479c-.655-.027-1.324-.024-1.981.006Z"></path></g><g id="Group_62" data-name="Group 62"><path id="Path_87" data-name="Path 87" d="M652.986,132.688a.5.5,0,0,1-.5-.5,11.317,11.317,0,0,1,6.9-10.419,11.3,11.3,0,0,1,12.4,2.423,11.269,11.269,0,0,1,2.424,3.6.5.5,0,0,1-.922.389,10.341,10.341,0,0,0-5.486-5.486,10.319,10.319,0,0,0-13.51,5.486,10.242,10.242,0,0,0-.809,4.012A.5.5,0,0,1,652.986,132.688Z"></path></g><g id="Group_63" data-name="Group 63"><path id="Path_88" data-name="Path 88" d="M663.793,143.5a11.322,11.322,0,0,1-10.42-6.907.5.5,0,0,1,.922-.389,10.353,10.353,0,0,0,5.485,5.486,10.39,10.39,0,0,0,8.026,0,10.3,10.3,0,0,0,6.3-9.5.5.5,0,1,1,1,0A11.3,11.3,0,0,1,663.793,143.5Z"></path></g><path id="Path_89" data-name="Path 89" d="M671.272,127.7l4.063-1.375-.841,4.206Z"></path><path id="Path_90" data-name="Path 90" d="M656.551,137.033l-4.017,1.5.707-4.23Z"></path><g id="Group_68" data-name="Group 68"><g id="Group_64" data-name="Group 64"><path id="Path_91" data-name="Path 91" d="M638.323,269.191s4.75,21.854,21.035,16.012C660.653,267.95,638.323,269.191,638.323,269.191Z" fill="#ed1d24"></path><path id="Path_92" data-name="Path 92" d="M654.07,286.7h0c-12.31,0-16.2-17.224-16.234-17.4l-.125-.572.586-.033s.362-.02.995-.02c2.762,0,12.165.425,17.239,5.893,2.535,2.731,3.654,6.323,3.328,10.676l-.025.324-.3.109A16.232,16.232,0,0,1,654.07,286.7Zm-15.111-17.022c.789,2.956,4.856,16.022,15.11,16.022h0a15,15,0,0,0,4.812-.856,12.475,12.475,0,0,0-3.085-9.6c-4.8-5.171-13.847-5.573-16.506-5.573C639.17,269.671,639.059,269.671,638.959,269.673Z"></path></g><g id="Group_65" data-name="Group 65"><path id="Path_93" data-name="Path 93" d="M661.909,287.645a.491.491,0,0,1-.3-.1l-16.315-12.418a.5.5,0,0,1,.606-.8l16.314,12.419a.5.5,0,0,1-.3.9Z"></path></g><g id="Group_66" data-name="Group 66"><path id="Path_94" data-name="Path 94" d="M654.115,281.712h-6.268a.5.5,0,0,1,0-1h6.268a.5.5,0,0,1,0,1Z"></path></g><g id="Group_67" data-name="Group 67"><path id="Path_95" data-name="Path 95" d="M650.146,278.69a.5.5,0,0,1-.5-.489l-.088-4.361a.5.5,0,0,1,.49-.511.536.536,0,0,1,.51.49l.088,4.361a.5.5,0,0,1-.491.51Z"></path></g></g><g id="Group_73" data-name="Group 73"><g id="Group_69" data-name="Group 69"><path id="Path_96" data-name="Path 96" d="M663.782,247.522s-17.929,23.315,0,30.636C681.711,270.837,663.782,247.522,663.782,247.522Z" fill="#ed1d24"></path><path id="Path_97" data-name="Path 97" d="M663.781,278.7l-.189-.077c-4.206-1.718-6.842-4.449-7.833-8.118-2.642-9.781,7.206-22.738,7.626-23.285l.4-.516.4.516c.42.547,10.268,13.5,7.626,23.284-.991,3.67-3.626,6.4-7.833,8.119Zm0-30.33c-1.831,2.56-9.277,13.656-7.056,21.875.891,3.3,3.264,5.777,7.056,7.374,3.792-1.6,6.166-4.077,7.057-7.374C673.06,262.024,665.613,250.928,663.781,248.368Z"></path></g><g id="Group_70" data-name="Group 70"><path id="Path_98" data-name="Path 98" d="M663.781,283.844a.5.5,0,0,1-.5-.5V256.575a.5.5,0,1,1,1,0v26.769A.5.5,0,0,1,663.781,283.844Z"></path></g><g id="Group_71" data-name="Group 71"><path id="Path_99" data-name="Path 99" d="M663.781,269.06a.493.493,0,0,1-.269-.08l-4.23-2.711a.5.5,0,0,1,.539-.842l4.23,2.712a.5.5,0,0,1-.27.921Z"></path></g><g id="Group_72" data-name="Group 72"><path id="Path_100" data-name="Path 100" d="M663.781,263.34a.5.5,0,0,1-.348-.858l3.092-3.012a.5.5,0,1,1,.7.717L664.13,263.2A.5.5,0,0,1,663.781,263.34Z"></path></g></g><g id="Group_79" data-name="Group 79"><g id="Group_74" data-name="Group 74"><path id="Path_101" data-name="Path 101" d="M790.482,140.316a13.372,13.372,0,0,0-26.322-.724Z" fill="#fff"></path><path id="Path_102" data-name="Path 102" d="M790.481,140.816a.5.5,0,0,1-.494-.426,12.871,12.871,0,0,0-25.336-.7.5.5,0,0,1-.981-.2,13.872,13.872,0,0,1,27.307.751.5.5,0,0,1-.422.568A.468.468,0,0,1,790.481,140.816Z"></path></g><g id="Group_75" data-name="Group 75"><path id="Path_103" data-name="Path 103" d="M801.542,146.268h-3.433a7.673,7.673,0,0,0-11.826-4.625Z" fill="#fff"></path><path id="Path_104" data-name="Path 104" d="M801.541,146.768H797.71l-.088-.389a7.174,7.174,0,0,0-11.055-4.325.5.5,0,1,1-.567-.823,8.173,8.173,0,0,1,12.5,4.537h3.042a.5.5,0,0,1,0,1Z"></path></g><g id="Group_76" data-name="Group 76"><path id="Path_105" data-name="Path 105" d="M795.675,139.05h0Z" fill="#fff"></path><path id="Path_106" data-name="Path 106" d="M797.488,139.55h-1.813a.5.5,0,0,1,0-1h1.813a.5.5,0,0,1,0,1Z"></path></g><g id="Group_77" data-name="Group 77"><path id="Path_107" data-name="Path 107" d="M799.515,139.05h0Z" fill="#fff"></path><path id="Path_108" data-name="Path 108" d="M808.9,139.55h-9.387a.5.5,0,0,1,0-1H808.9a.5.5,0,0,1,0,1Z"></path></g><g id="Group_78" data-name="Group 78"><path id="Path_109" data-name="Path 109" d="M760.475,146.268h0Z" fill="#fff"></path><path id="Path_110" data-name="Path 110" d="M760.475,146.768h-4.48a.5.5,0,0,1,0-1h4.48a.5.5,0,0,1,0,1Z"></path></g></g></g></g></g></g></svg>